<mxfile host="app.diagrams.net" agent="Mozilla/5.0 (Windows NT 10.0; Win64; x64) AppleWebKit/537.36 (KHTML, like Gecko) Chrome/135.0.0.0 Safari/537.36" version="26.2.14">
  <diagram name="Page-1" id="XkkyYZc2egc9sLxFSGP0">
    <mxGraphModel dx="1304" dy="659" grid="1" gridSize="10" guides="1" tooltips="1" connect="1" arrows="1" fold="1" page="1" pageScale="1" pageWidth="850" pageHeight="1100" math="0" shadow="0">
      <root>
        <mxCell id="0" />
        <mxCell id="1" parent="0" />
        <mxCell id="_JRS8aCD4_NyxfwCqgJr-2" value="" style="rounded=0;whiteSpace=wrap;html=1;" vertex="1" parent="1">
          <mxGeometry x="60" y="120" width="500" height="360" as="geometry" />
        </mxCell>
        <mxCell id="_JRS8aCD4_NyxfwCqgJr-3" value="&lt;font style=&quot;font-size: 31px;&quot;&gt;AWS&lt;/font&gt;" style="rounded=1;whiteSpace=wrap;html=1;" vertex="1" parent="1">
          <mxGeometry x="247.05" y="80" width="120" height="50" as="geometry" />
        </mxCell>
        <mxCell id="_JRS8aCD4_NyxfwCqgJr-5" value="" style="whiteSpace=wrap;html=1;aspect=fixed;" vertex="1" parent="1">
          <mxGeometry x="630" y="180" width="80" height="80" as="geometry" />
        </mxCell>
        <mxCell id="_JRS8aCD4_NyxfwCqgJr-9" value="" style="rounded=1;whiteSpace=wrap;html=1;" vertex="1" parent="1">
          <mxGeometry x="70" y="150" width="120" height="140" as="geometry" />
        </mxCell>
        <mxCell id="_JRS8aCD4_NyxfwCqgJr-40" style="edgeStyle=orthogonalEdgeStyle;rounded=0;orthogonalLoop=1;jettySize=auto;html=1;exitX=1;exitY=0.5;exitDx=0;exitDy=0;entryX=0;entryY=0.5;entryDx=0;entryDy=0;endArrow=none;startFill=0;dashed=1;" edge="1" parent="1" source="_JRS8aCD4_NyxfwCqgJr-10" target="_JRS8aCD4_NyxfwCqgJr-11">
          <mxGeometry relative="1" as="geometry" />
        </mxCell>
        <mxCell id="_JRS8aCD4_NyxfwCqgJr-10" value="" style="rounded=1;whiteSpace=wrap;html=1;" vertex="1" parent="1">
          <mxGeometry x="230" y="150" width="120" height="140" as="geometry" />
        </mxCell>
        <mxCell id="_JRS8aCD4_NyxfwCqgJr-11" value="" style="rounded=1;whiteSpace=wrap;html=1;" vertex="1" parent="1">
          <mxGeometry x="420" y="150" width="120" height="140" as="geometry" />
        </mxCell>
        <mxCell id="_JRS8aCD4_NyxfwCqgJr-12" value="BIG DATA" style="rounded=1;whiteSpace=wrap;html=1;" vertex="1" parent="1">
          <mxGeometry x="85" y="340" width="450" height="50" as="geometry" />
        </mxCell>
        <mxCell id="_JRS8aCD4_NyxfwCqgJr-32" style="edgeStyle=orthogonalEdgeStyle;rounded=0;orthogonalLoop=1;jettySize=auto;html=1;exitX=0.5;exitY=0;exitDx=0;exitDy=0;entryX=0.5;entryY=1;entryDx=0;entryDy=0;dashed=1;endArrow=none;startFill=0;" edge="1" parent="1" source="_JRS8aCD4_NyxfwCqgJr-14" target="_JRS8aCD4_NyxfwCqgJr-12">
          <mxGeometry relative="1" as="geometry" />
        </mxCell>
        <mxCell id="_JRS8aCD4_NyxfwCqgJr-14" value="&lt;font style=&quot;font-size: 29px;&quot;&gt;&lt;b&gt;IAM&amp;nbsp; &amp;nbsp; &amp;nbsp;&lt;/b&gt;&lt;/font&gt;" style="rounded=1;whiteSpace=wrap;html=1;" vertex="1" parent="1">
          <mxGeometry x="250" y="420" width="120" height="60" as="geometry" />
        </mxCell>
        <mxCell id="_JRS8aCD4_NyxfwCqgJr-29" style="edgeStyle=orthogonalEdgeStyle;rounded=0;orthogonalLoop=1;jettySize=auto;html=1;exitX=0.5;exitY=0;exitDx=0;exitDy=0;dashed=1;endArrow=none;startFill=0;" edge="1" parent="1" source="_JRS8aCD4_NyxfwCqgJr-15" target="_JRS8aCD4_NyxfwCqgJr-5">
          <mxGeometry relative="1" as="geometry" />
        </mxCell>
        <mxCell id="_JRS8aCD4_NyxfwCqgJr-15" value="" style="shape=actor;whiteSpace=wrap;html=1;" vertex="1" parent="1">
          <mxGeometry x="625" y="370" width="90" height="80" as="geometry" />
        </mxCell>
        <mxCell id="_JRS8aCD4_NyxfwCqgJr-16" value="" style="shape=datastore;whiteSpace=wrap;html=1;" vertex="1" parent="1">
          <mxGeometry x="450" y="170" width="60" height="60" as="geometry" />
        </mxCell>
        <mxCell id="_JRS8aCD4_NyxfwCqgJr-18" value="" style="shape=image;html=1;verticalLabelPosition=bottom;verticalAlign=top;imageAspect=1;aspect=fixed;image=img/clipart/Gear_128x128.png" vertex="1" parent="1">
          <mxGeometry x="255.9" y="200" width="34.1" height="40" as="geometry" />
        </mxCell>
        <mxCell id="_JRS8aCD4_NyxfwCqgJr-19" value="" style="shape=image;html=1;verticalLabelPosition=bottom;verticalAlign=top;imageAspect=1;aspect=fixed;image=img/clipart/Gear_128x128.png" vertex="1" parent="1">
          <mxGeometry x="290" y="200" width="34.1" height="40" as="geometry" />
        </mxCell>
        <mxCell id="_JRS8aCD4_NyxfwCqgJr-20" value="" style="shape=image;html=1;verticalLabelPosition=bottom;verticalAlign=top;imageAspect=1;aspect=fixed;image=img/clipart/Gear_128x128.png" vertex="1" parent="1">
          <mxGeometry x="275.9" y="160" width="34.1" height="40" as="geometry" />
        </mxCell>
        <mxCell id="_JRS8aCD4_NyxfwCqgJr-22" value="" style="verticalLabelPosition=bottom;verticalAlign=top;html=1;shape=mxgraph.basic.patternFillRect;fillStyle=diagRev;step=5;fillStrokeWidth=0.2;fillStrokeColor=#dddddd;direction=south;" vertex="1" parent="1">
          <mxGeometry x="90" y="160" width="20" height="70" as="geometry" />
        </mxCell>
        <mxCell id="_JRS8aCD4_NyxfwCqgJr-23" value="" style="verticalLabelPosition=bottom;verticalAlign=top;html=1;shape=mxgraph.basic.patternFillRect;fillStyle=diagRev;step=5;fillStrokeWidth=0.2;fillStrokeColor=#dddddd;direction=south;" vertex="1" parent="1">
          <mxGeometry x="110" y="210" width="10" height="20" as="geometry" />
        </mxCell>
        <mxCell id="_JRS8aCD4_NyxfwCqgJr-24" value="" style="verticalLabelPosition=bottom;verticalAlign=top;html=1;shape=mxgraph.basic.patternFillRect;fillStyle=diagRev;step=5;fillStrokeWidth=0.2;fillStrokeColor=#dddddd;direction=south;" vertex="1" parent="1">
          <mxGeometry x="120" y="180" width="20" height="50" as="geometry" />
        </mxCell>
        <mxCell id="_JRS8aCD4_NyxfwCqgJr-25" value="" style="verticalLabelPosition=bottom;verticalAlign=top;html=1;shape=mxgraph.basic.patternFillRect;fillStyle=diagRev;step=5;fillStrokeWidth=0.2;fillStrokeColor=#dddddd;direction=south;" vertex="1" parent="1">
          <mxGeometry x="140" y="210" width="10" height="20" as="geometry" />
        </mxCell>
        <mxCell id="_JRS8aCD4_NyxfwCqgJr-26" value="" style="verticalLabelPosition=bottom;verticalAlign=top;html=1;shape=mxgraph.basic.patternFillRect;fillStyle=diagRev;step=5;fillStrokeWidth=0.2;fillStrokeColor=#dddddd;direction=south;" vertex="1" parent="1">
          <mxGeometry x="150" y="200" width="20" height="30" as="geometry" />
        </mxCell>
        <mxCell id="_JRS8aCD4_NyxfwCqgJr-33" style="edgeStyle=orthogonalEdgeStyle;rounded=0;orthogonalLoop=1;jettySize=auto;html=1;exitX=0.5;exitY=1;exitDx=0;exitDy=0;entryX=0.454;entryY=0.013;entryDx=0;entryDy=0;entryPerimeter=0;dashed=1;endArrow=none;startFill=0;" edge="1" parent="1" source="_JRS8aCD4_NyxfwCqgJr-10" target="_JRS8aCD4_NyxfwCqgJr-12">
          <mxGeometry relative="1" as="geometry" />
        </mxCell>
        <mxCell id="_JRS8aCD4_NyxfwCqgJr-38" style="edgeStyle=orthogonalEdgeStyle;rounded=0;orthogonalLoop=1;jettySize=auto;html=1;exitX=0.5;exitY=1;exitDx=0;exitDy=0;entryX=0.1;entryY=0.017;entryDx=0;entryDy=0;entryPerimeter=0;dashed=1;endArrow=none;startFill=0;" edge="1" parent="1" source="_JRS8aCD4_NyxfwCqgJr-9" target="_JRS8aCD4_NyxfwCqgJr-12">
          <mxGeometry relative="1" as="geometry" />
        </mxCell>
        <mxCell id="_JRS8aCD4_NyxfwCqgJr-39" style="edgeStyle=orthogonalEdgeStyle;rounded=0;orthogonalLoop=1;jettySize=auto;html=1;exitX=0.5;exitY=1;exitDx=0;exitDy=0;entryX=0.877;entryY=0.002;entryDx=0;entryDy=0;entryPerimeter=0;endArrow=none;startFill=0;" edge="1" parent="1" source="_JRS8aCD4_NyxfwCqgJr-11" target="_JRS8aCD4_NyxfwCqgJr-12">
          <mxGeometry relative="1" as="geometry" />
        </mxCell>
        <mxCell id="_JRS8aCD4_NyxfwCqgJr-41" style="edgeStyle=orthogonalEdgeStyle;rounded=0;orthogonalLoop=1;jettySize=auto;html=1;exitX=0;exitY=0.5;exitDx=0;exitDy=0;entryX=1;entryY=0.5;entryDx=0;entryDy=0;dashed=1;endArrow=none;startFill=0;" edge="1" parent="1" source="_JRS8aCD4_NyxfwCqgJr-5" target="_JRS8aCD4_NyxfwCqgJr-11">
          <mxGeometry relative="1" as="geometry" />
        </mxCell>
        <mxCell id="_JRS8aCD4_NyxfwCqgJr-45" value="" style="shape=image;verticalLabelPosition=bottom;labelBackgroundColor=default;verticalAlign=top;aspect=fixed;imageAspect=0;image=data:image/png,iVBORw0KGgoAAAANSUhEUgAAAdUAAAFvCAYAAAAc6FHkAAAAAXNSR0IArs4c6QAAAARnQU1BAACxjwv8YQUAAAAJcEhZcwAADsMAAA7DAcdvqGQAALjFSURBVHhe7J13vBXF3f8/s3vK7YUOIr1ZEAWxAYIllkSNvUaNXRTFgia/9MQ8efKkaaImJnaNGo2a2FuiIogFEBUFKdIFhXu5/dTdnd8fZ2bZs2d3z+7es8u9x3n7GoHdPTO785mZ7/QhLS0tFAxCCGRZhqIo/BIAoKamBpFIJO+aE4qioLOz03xZhxCCSCSCbDabd72iogIVFRV514rR2tpqvqRj9z2RSAQ1NTV514rR2dlZ4I8RSZIAAJqm5V1vaGjI+3cxUqkUUqmU+bKO3TcJjYRGHKGR0IgjNApfo1zsMCilUFUVsiwbL5ccSimy2ayniPEDpRSKogQeDgwJjBBivlVShEb+ERr5Q2jkH6GRf3qrRnlGFSwATdMC/xCwGkSpPsSJUkaYE5qmgRASSmITGvlDaOQfoZF/hEb+6I0aFRhVhFhDAABVVUvyIU4QQkJNbGEgNPKP0MgfQqPuITTyR2/TyNKocjRN63YAxQir24IntjCEoZQGXoPjCI38ITTyh9DIP0Kj7tFbNCKUUn2ikhWapqGzs9NTrSTiY3CcUopkMolMJmO+5YjXwXHK+s8TiYT5liNeB8fhYoDcCj+D40KjHEIjoRFHaCQ04oStkWNLFWymlyzL+oyvoCBsplfQtStCiP5NQdewIpFI4PEGoVG3EBr5Q2jkH6GRf3qDRq7ejFIaSjOfhjgozfvog/4mTdMgSVLg4QiN/CM08o/QyB9CI//0dI1cGVXspg8JOixFUQKv8YAlNhLSTDmhkT+ERv4RGvlDaOSfnqyR51imlAYuDmWzvcKo9YRZiyOsOyZohEb+EBr5R2jkD6FR9+iJGvl6G97MD5owp1G7jbDuoIW0aBpCI98IjfwjNPKP0Mg/PU0j32/Cm8RB093pzW5xG2HdJcxanNDIH0Ij/wiN/CM08k9P0qhbXxuWOIqihNJtEVY4vBYXRmITGvlDaOSfsMIRGvknrHC+jhp1+0t5d0LQhBmOHMKU7bATW7mFIzTyR5jhCI38EWY4QiN/OIVjfdUjms1OF3zmFJ+p1V1UtoVUKfxygs+Us6uJlIqwu0esNCo1QiP/CI38USqNjOWVHWFoRA0bvDu9SynobRq5oVQacbtlp4FdPirZF/ImsRFimFpdKtF4n7b5Q0oN/56gE4GqqqElNiuNgkBo5B+hkT9KoREvrwghjoVpUBrx8Pg7CI38UwqN3NguK42KblMIF+frGZEkCZIkoaamBtu2bcXq1auxbes2dHZ1QVNV8+N5KIqCrOlMOztkWYaqqqisrDTfKoqmaUin0+bLlsiyDE3TEIvFfCWGZDJpvmQJ91uWZV+1rEwmA7VI/HJ4zTQWi5lvFaUnaETY+1NKQdkEBaHRLnqCRmZ6ukayHEFNTTXqGxowbNgw9O/fH9FoFNRhLaTMxtW8boEHi7NEeTiZTAZfbNmCNWvWYOfOnUinM0wj5WuvESf4fJSr1MgRGX0a+2D0mNEYPHiwbjyt0kOEncfa2NhYWqNK2ZqhLVu24PXX/4vF77+P5h1N6OrqRCaroFhITrVDK3iNzg+ah70jwwzH+KcXvMRdWOEgoLgz+meu3fvBLhwrwoq7sMJByHEXVjjGP91AJAnRSASVlZXoP6A/Jk7cD7OOmIVRo0bZFvyEFdZ+jJ3RqFK2DnL9+vV46YUX8OGHy9Da1oZkMgVN3bU0Jc/QUQq3CnuNOy/xZsRrOMY/veAlffsNRyIERJIQj8cxcNBATJ48BUcddRRGjBxh61ckEkF1dTVINpst+naZTMZVhKmqildeeQXP/OvfWLNmDVpbWwx3rV9EIPACIQQDBgzA8OHDsW3bNmzcuLFbBYFAYIQ3DOrq6jB27Fh8++Rv4/CZM1FTU2OZxrhhtbrnhKIoUBQFlFKk02m8++67ePD+B/D555+jo6Od+efNT0EwEEJQX1+PAw44AGeefRamTp1q25KPRqMgLS0tRY2qm1MLVFXFI488gscefRQb12+Aoqq6ISasq04g8AthG1yPGTMGN918M4buORSbN2/Gfffci3feeQcwtFoFgu4isY3bhwwZggu/eyFOPOkkNDQ0FBhPRVH0bk+3XZJgJ7TE43EoioJ333kHv/zlL7Fh/QZoRSZKCcKHV9orKiswdepUXHHFlTjo4IPMjwEAWltbSzdR6blnn8WjjzyCDes3IKsoeS1bkUgE3YUQgoqKCsycNROHHHoIhg0bhoMOOgjfOuEESJIk0pigpGiaBkVRsHnzZjz4wIN4a/78vDFQI6qqglLqa2LMju3b8Ze//AXrPl/nqVtTEB6UzQpPJVN4//3F+Ne//oX169ebH9MpiVFduXIlHnv0MWzcsBGKoohOC0FgRCIRxONxEDbGFIlEXA1NCARe4QZuy5YteOrJp7BmzRrzIzo8Dbo1rBqbQPTKq6/iw2UfghAi0nEPJ2dYk3h74UIsXbLEdp6RZNc37IWXXnwJn3/+uT5GIGpbglKjaRqSySRe/+/rePedd5DJZLBixQr8+1//ArWZkScQdBdN06BpGj744AO8vXAhWltbbcs33v3rxrBKkoRMOoOXXnwRmUxGNER6CZRSbN++HR999BG2b99umRZIe3s75c1bO6zGVHlBtnnzZtx4ww34cNmHjn4Y4dOcBQKvyLKMQYMGYdCgQWhubsaWLVtsa4wCgRO8AWBVMBrhZdW0adNw8/e+h7323ku/pigKOjs7857nS22c0mU8HsemTZtw7jnnoq21Vcw76SVw3Q877DBcd/312P+A/fOut7a25iYq8ZqV3UC7lVHV2MkAr736Kv73V/+LLVu2QNM0EMB2qrdIOIJSEYlE9LEsgSAMBg4ciJ/f8gscccQRemvUyqjC0HCwKlMppYjFYvj4w49wwQUXiDTci+DGc6+998aNN96Iw2cennddN6pgtSu7FquVUeUt1XvuuQf3/O1u7Ny50/K3HG5QBwwYgIn77Ye62lrzI5Bl2VXXiZFMJmO+pGNnxAkhiEaj5suOZLNZS7/gEA4Aj4uOcxUbq4yIIuFEIhHbad5W8IkYVvAEYhVWT9CIvx9M7yg0ytETNLJjt2tEcuFoGkVba2tuc5pt2xzLLo4kSfjpz36GU087VV+bamdU4dBipcyoLlm8BJdefDEAQBNDGL0CrtHYsWMx76Z5OOLII/Ou5xlVGMYCzInRyqhybv3DrXjk739HW1ubbYbgnHXWWTj/gvNRW1cHSZIKwonH46ioqMi7Voy2tjbzJR3ClmGYEzVfpOuFrq6uAn+MyGw3EnMc1NfX5/27GKlUynEHFDuNqqurbTWyQlEUdHV1mS/r2NW0hUZCI05v14hSii+//BLPP/ccnvn3M45xwLn5ezfj7HPOQW1trW4w7YwqbDQyGtVLmFGlwqj2CiRCQCgwZtxY3OjGqMKmQHAyqr/7zW/x2GOPob29vSAjwFD7PO+883DF7CtRUVEBYthj0xhORUWF58KgtbXVfCkPq++JRCKetxZzs6uUzLZ8M9LQ0JD372KYty+zwuqbnDSyolhhAJsCQWgkNOKUi0ZNTU144vHH8egjjxbdau/GeTfi3HPPRV19vSujCguNdKO6ZAkuuShnVAW9AzdGtaAvigvPE1x3oZRi8ODBOO/876CqqgowvABh3UcS2y84CMcNPd/PMkhHKUU0GoXMNqcOylG260vQcSc08u+ERv5dmBoRQtC3b19Mnz4dk/afpFf2HSl23wRveZeqTBX0bAqMKgyGVXIx/uO0AyVPRJOnTEFDQ4M+uYnDE5uX2rsfKBsrDjocsLiTWM00SLxo1B2ERv4RGvknLI14mTR0zz0xfPhwwGacuruEpZFg92Ob21V2TE+x2hVxscKqT58+IDaTEDS2DizoxKZpGlR2/l3Q8LgLGrcadRehkX+ERv4JSyNN01BVVYX6+gbE43Hz7ZIRlkaC3UvRDfUppchkMpYGEQD+dNsf8eSTT6Kjo6PgGT42csmll+K666+DxPbTtCObzeq1e7d4HTuCz3D8HIeksE2zvRCJRDxnumIaWSFJkucZlfAZd0IjoRGnp2rU1dWFe++5F/fde6/jWOw1116DM848U5+o5EcjyjbRX7hwIeZcdbX5tqAHw8dUR40ZjWvmXosZh+cvqamoqIDEE5+di0ajIGyQnSduo9NcTkU3+2vlZDYjzxyGkzP74cbxcxLNfjk5t99gdLzWa/bLycFQILh1xTSycrzG7NUJjYRG3JWbRk4Vfo7Gljlx1x2NBL0Xyo7rM6e7SCRi3/1rRDONhQYFN9BhJLgwumEImx0YdDgQGvlGaNQ9yk2jsHDTGBH0TlzncFVVIbPFzEGiduPEBy/QECddhFUgCI38IzTyRzlqFBbCsJYnro0qDAVC0IRV09ZCnHShKErg3wOhUbcQGvmjHDUSCPziyagixETNa9pBd5fxvvEwCgRN00KJO6GRf4RG/ihHjXoixLBxjnClc6XMH758CqsLi9e0S/nBVvAurKAzaphdZUIjfwiN/FOOGvUUeMEfi8U8u2g0mufsrpvve3Vmf7hf5mvdDcfKT6trXsKJlHDyGKG0+Bx/u63FZFnGn277I5566inHJTWXXX45brjxBkhFltTYbS3GCwNeOBjxun0ZHLZ/IzZ7nMLHFnMcu+3feNyY8bPFHIpopFnspRrxscUchEaA0EinnDTq6urCPXffg7v/9jfLuONcPedqnHb66fqSGj8aUUqRSCQwf/58XDvnGvNtSyorKzF27FgMHzHcsQw1QylFNps1XwZYerBKC1E2U90rdocyEJs9CmQfBz+ApTur97YLR2Izzu0gIEhn0tiwfgPWrVvnqL9xSc1Vc67G9BkzAMOSmoaGhu4ZVQD48x13Fl2n2l2jCkO3hzkyS1kYwFAjNGfUUhcGYIWmOV69FgYcJ414AWfMKH4KAwiNAKGRTjlp5NaoXnX1VTj9jDNCNaqxWAzTZ8zAD374A4wYMcJ825Fy0ogTRD7SNA2frfwMv/vdb7HgrQUA08kMN6ojR4/CnGuvwbTp0wGTUe12f5A5cwYF/8By6cJCiBNWwgpHaOSfsMIRGnWPoOPNjCRJGDBgAKbPmI7hw4dDZWPkpXAam2AmsX2Qg3QKW6Nsvl5q5zccQghGjhqJY445FjJb5+0Gq/RQeKVUUOZKCO8is/qQUkLZpIugMyo1FDzGmlUQaCGukRQa+UNo5I8wNQoj3ozwb8tmslBYt2cpnaqqyGazeu9FUE5lGyUQ1kVrvl9Kx1ux5uvFnKqqyDgcF2iGG2Rzeuh29+8df7odTz/9dEH3L6FARJahaCouLUH3rxGecSilJe+2MmLsHgmiS8RIJBKBqqq+zsJEEY2M8FqcLMtFu0SsEBoJjTjlpJHb7l8+psrPd/WjEfXR/XvIIYfg6mvmYMCAATndipbaOVRVdTyTl2PUqLq62rGctqO9vd18yRKuUSwW87XXciKR8JyP+AlpAGC1Xb2qqli7di0euP8BvLNokW78zfA8M2r0KMyZMwfTZ8wAYUMqPB/1SqPKIYR4PrwYHgoDGBJbZWVloIUBWAb1m9CcNDLDdfB6wDSERkIjA+WkkVejWltbC5lNtPGqkVejCmZYR48ejdFjRkOWI7mytmjJnQvLeqJSoWXhBiMSibg43a7wgV0TlYq/GCG54/es7YHz7xVFheY47GiwQ8zg5aU5ku8/IRIy6TTWrFmDNWvW6PFghZVR5dd5PurVRhU+B9W9FAacyspKxGIxxwi3wkthAJZ5KisrPYfjpJEVkiShpqYGkseuLKGR0IhTThr5Maq8ouBVIz9GtfQUe18no4Uivy829kcsjfIuiv3eKWy4eHdrCOsCd0ozTkYVLB+RlpYWp7cHimS43/3mt3jsscfQ3t5ua1TPv/BCzL5qdlGj6mc2WGtrKySbqeF2RFzMBjPDCw8vhSJ8zKpMpVJQDJuCu8VJIysURdHD8oLQSGjEKSeNEokEHn7oYTz80EOORvXGeTfi3PPOQ11dHQjbk9irRpRSxGIxLFmyBJdcdLH5tiXGgt6p0HdPMT+KmYUgf9+d38LF762hbKzXKX75vbHjxmLevHk44sgj8663trYWNfm9Ai2kCR5KSHuPKorie62YF5SQdvWB0Mg3QiP/lJNG1DBT1TzBxp9Tizjz82Znft7szM+bnfn5Uv3Wze+tHWWzgLtL8DkoJKjFLKwgCKtAyGazkEOYzchnZwYdDoRGvhEa+accNcrBu0i745wwP2t2TpiftXJOmJ+1ck6YnzW7YAk+9xgGcYOE1+LCKhDCyEBh1IDBCgRJkgL/HqGRf4RG/ik3jXZhNhZeXDHMz5tdMczPm50T5mfNrhjm580uWKRIJBJIIsj7DDatOeiMSkNa2I4QMxCv0QcdDq9pBx13QiP/CI38Uy4a8QYKIVIJXOHG8u79Nz/v5be7+/fm53MTzojLtEHgbJulwGqLBKAGLxW200XJwzHB+8eDStRGeAYKmsA0MiE08o/QyD9CI7+QbrhimJ83u2KYnzc7J8zPml0xzM+bnQXFF8EA3Adq6wsA7Jr9G2ELcnkt1YjTrEW72b8w7P17gWH2bzwe1zOsGb+zFq3ghYFVOH5nLSo2M/z4d1rhZ9ai3exDvxpZoTgsh4hEIkIjB4RGOcpJo+7M/vWqEfUx+1eSJFRVVaGhsRGyqaLDjbdVmuOtMC9oFoc7cIjNpghg+nmBsklXVjh9k9cKi5twMpkMWltbkUgkzI/kwff+HTNuLG68yXr2b96SGrtE4FQYeDWqsizbhlPKwgAsfKsILXVhAJuMihIXBvCpkRVOhQEcwhEaCY045aRREEYVFuHAh1GVJAkjRozAzFmzMGLECESikYLuRzsjJEmS57SQSqUKtDYi2Sy9ytu1yAXZbNZmY4ockmEPXyPxeNyTAVdVFWmb7QcpKGRJRiadxuo1a/D6f/+Lbdu2mR/T8WxUYZOonQoDP0YVNomt1IUBbAqEIAoDsLA0Uy2v1IUBfGhkRbHCAEIjW4RGOcpJo6CMKiw08mJUCSFoaGjA6WeegbPPPlvfdMKqpVbuGnFKnY8opYhEIvjyyy/x4P0P4IknnsiLQyNujGpBv4AS8riDlxqHH1RVBWHnOwaNyiZdBI3QyD9CI38IjfzTHY0IIaitq8P4ceNRV1enGzJupI0um82CsrWW5nuldryFab5eapfJZEAC3oSfUopMJoPGxkaMnzCh22nP8tc8sXXX82Io7NSCoBM1r+n4SdRe0TTNUy3KL0Ij/wiN/CE08o9fjSil6OzsxLp1nyORSECSrGevcqexFlaEzXQO0lFK9c01gnSqqiISiegVoCCcJElobW3F+vXr8lrFfijo/jXCm97V1dW2Cdxv96/5Od4lUupuKyM8bEJIIF0iHC6SqqqBdIkYcaORFUqRLhEzQqNdCI3KT6NMJoP777s/kO5fIzLrNo1EIq66f8F+M2rUKBx19NEYNmwYJJlXAOwNNK8kEEI8p4VUKgXVZsKYGW6UNE3zfLBANps1bMJfHB53fsZU8zXNt1OE5bU1q9fgP//5D7Zs2ZJ334ib7l+STCZtjSpYTYn/wIrb/nArnnjiiYIN9WHY+/eiiy/GtXOvtTWqYC9lNspBIEmS3h0TJITVsIIOBy40KhVCI/8IjfwRlkZdXV24/7778cD99zsa1bnXzcVZhrFNv6iqikWLFmH2FVeab1kiyRLq6urQt28/SHq4xcMPK931nnCs84aqqmhubkZ7W5vNEzkIISAARo8Zg7nXzcXMWbP06/ozbk6pSSQStjWKUp5Sk06nkU6n9S4MN3itwYLVSpLJpOvaGHwMjsPQdeMlHD+TTFBEIysiPiYwQGgECI10ykkjv6fU+NGIUopkMon58+fjmqvnmG/bQlirUBAM1GKmsRke/3an1DQ0NFiPqZrh3RVBC8prIUHXSjleM7dXeC076HAgNPKN0Kj7BB13YWoUFn5aXLzQFy44Vwpc5zo+oB80vKsn6AJBVVWoIe3kElaBIDTyj9DIH+WoUVh46UngmI2AcKVzpcJTjlNCOllCYTPlgi4QeGQGXSBQSkMrEIRG/hAa+accNRII/OI5t/ECwWvXhVd4TTvocPg6pTAKhDALU6GRd4RG/ilHjQQCP3g2qgi5pi2HsDg7rAIBIXZhCY38IzTyRzlqJBB4xZdRBVtjFEaiDrNAgGENXlCE2YXFNaIlHC+wQmjkH6GRP8LUSCDwgm+jCkNGtYIC0Nif3UUJ6SglNaQdY8IsEBRFQSwWM18uOUIj/wiN/BGmRgIB2MpgiQKSwxrhbhlVsAxkCXG1Ntk1KpthGHSBEGZNmy+xCJqwehWERv4RGvkjTI1g2KlI8PWGVxqt8lGvSiFh1rQRQoGgsQ2dgw4HIY/fCY38ITTyR5gahWnABT0b1WYSYK8yqjB8SNCEXSCEkVHDKrSFRv4RGvmjHDUS9Hys8lHwuSoAwurCUkMcGyq3AkFo5B+hkT/KUSNBz8ecj3qlUYXhQ2jAsyY1H7ue+EHTNL1WHzQK2xQgaIRG/hEa+aMcNRL0fIz5iHR0dBTNTbFYrKCJy/nD736Pxx9/3PHotwu/+13MuWYOpCIb6kciEc+1v0Qi4blQkCTJ82zLdDoNYjiv0C1eNvUGy6i8K8sLThpZoaoqFEXxFG8QGgFCI51y0iiRSODBBx7Egw884Lih/vU3XI+zzzlHP/rNj0aUUkiShPfeew+XX3qZ+bagB8OPfhs9dgyuv/EGzDriCMCwoX4ikYCkKAqKOUmS9Ixqdm4KCcp2QSnmYCgQ3DpeM+WJ243TWBeRF0cpRTabdf0t3Jn9KebAznYEKxjcOieNrJwsy77CERoJjbgrN43cGGCzht3RyKmBIejZEEIgy3JButM0LbjuX0JzLgzcZIZSQNm6uDAygxrC+jtCSGhLOYRG/hAadY9y00iwe6EANOK8/0JgRhWGpaphjDtQH0cp+YXX0IOE1+SDDocXCGEUcEIjfwiN/FOOGgl6AA5ZRAo6sSGkzAPDWEXQhJVREdIsQ0JIKOFAaOQboVH3CCOcMDUS9FwkVVURjUbN10tKmN0jmqaFUiCAZdQwaqZCI/8IjfwhNPJHmBoJeiYSZRMHgk4EvBYXRubRQtpdBYap1EEiNOoeQiN/CI38EaZGgp6HXhXNZrOB1+IQUm0RIWVSTliFj9DIP0IjfwiN/BOWRoKehW5Uw+y2CCucsAoEymYzBt1dJjTyj9DIP0Ij/4QVjqDnUJB6SznQTpmzopThOKGGMKWeE9Y4VFhxF1Y4QiP/hBWO0Mg/YYUjCBE7w2ZlVFGiREBJzjmhKAqi0ShIwFP4wxzfKMcCQWjkD6GRf4RGgp4IQe48VScVbVNtWIkty9Z2BZ3YeBdW0OEgxCUJQiP/CI38ITTyT1gaCXYvUsRiiy/uACAajUJ12LpMc7ELCyGkwG+rcMASuBdn9svJEUIQi8VA2Ow8L07ysMWcLMuQZRmSJBX4U8zB4xZzPO6cNLJymsct5oRGu5zQqDw1cmPANU3LC6c7GqkhbfwvKD18/N+c7iKRCAilxXeC7urqQiaTsaxh3fGn2/H000+jo6MDZq9ktqH+ZZdfjhtuvAFSkQ31U6kU0ul0gT9ONDQ0mC8VRVEUJBIJVxUCTk1NjZ4p3EIpRVdXl57J3VBRUeF583AU0ciKSCSCmpoa8+WiCI2ERpxy0qirqwv33H0P7v7b3xw31L96ztU47fTTUVtbqzcWvGpEKUUikcD8+fNx7ZxrzLcFPRi+of7I0aNw9TVzMH3GDIA1HMHyUfGqGUsEEbYZdtDwmmnQEEICD4fX5J0qEqVCaOQPoVH3KDeNwiToeBPsHlyrqrI1V0EXCArrInJbm/eLqqog7KSBoAlrSYLQyD9CI3+Uo0Zh4aWFL+g9uDaqMMxgK6cCASEdwRTWwnahkX+ERv4oR40EAr94MqrwUiBQ57U8xeC10qC7SMIqECil+qSGoHGtUTcRGvlHaOSPMDUSCKwolmN95TRFURCLxcyX8yDM8+7UkcOsaYcxNhRmgeBGo1IgNPKP0MgfYWokEBihKL4Hg+/Uz9dcBY0S0gQFRVFCGRvSNA1qSLvTCI38ITTyTzlqJBB4wbdRRYgTBxS+/kfUtD2jhrSpt9DIP0Ijf4SpkUBgxCkPdTvV87GUoOEFQtDwmnbQBYKmaaEVCGFt6i008o/QyB9hagSxDEbAoJTaNih7VQoJq+AJq6ataZqjOKUkrO4/oZF/hEb+CFMjTcw+FjDshh+CTe0BUG5dWLylbyVOqbFLBKVGaOQfoZE/ylEjQc/HKh8Fm9IDIqwavcrOdgyjQFBDGp8Oq0AQGvlHaOSPctRI0PMx56PAUjlfplpsTY9feA0h6HV+fGwoaCiloJQGHhYN6SBoCI18IzTyTzlqJOhZEBQaNmM+Islkslu56bY/3IonnnjCcUP9iy6+GNfOvRZSkQ31/cDHOMxhlxo+ZqOFsLUYISTw7wkToVHP5+uuUVdXFx64/wHcf999jhvqz71uLs46+2x9Q30/UDZredGiRZh9xZXm24IeDN9Qf/TYMbj2urmYOWsWYJgNrGkaSEtLS9FU53SyxO9+81s89thjaG9vL0jA3KhecOGFmH3V7KJG1evJEgDQ2tqqZ1Jz+HZEfJws0dnZqfuvepjx7PX0j1QqpZ9k4iUcJ42sUBQFXV1dkGUZSoCnf0BopCM06rkaJRIJPPzQw3j4oYccjeqN827Eueedh7q6OhC20b9XjSiliMViWLJkCS656GLzbUEPhhvVMePG4sab5uGII48EDEa1tbU1uO7fMOHdMH5rjm7hmTPoLh9esHkpgP3Aa8xBhwOhkW+ERv4pR40EPZ9gUzUj6EwKllHDDMepxV0KtJDW32kh7kwjNPKH0Mg/5aiRoGcjhZEIwqgtgoUTdO0XrECgIayLC6tAoJTqA+1BIzTyh9DIP+WokaDnIoVVuworUYdlwDXWtRR04RNmDVho5A+hkX+ERoJyQ6JsanjQiSCsRB1mbVFjMxiDLhCERv4RGvlDaOSfsDQS9EwkGBJbSbthKEBMkwjDzKhKSAvbeYEQ9DhUIBpZIDTyj9DIP0IjQW+Agh39Zr5hQK8a0hLPYCMGZ0YN6VSOUn6PE5qmgYSwFVupNXJCaOQPoZF/hEaC3gCFjWFj5KXeMGtxYWzqHWZtsRxr2kIjfwiN/CM0EvR2CqqEvBYXdGKDYWunoAkrUfOadhgFgtDIH0Ij/wiN/BOWRoLdT4FRRYi1OLDukaATGyEk1AIhDIRG/hEa+UNo1D3C0Eiw+7E0qpwwxh3C6lriBUIYmYeGsKE3R2jkD6GRP8pZozDGcsPQSLB7IZQ6b/SpaRo6Oztta453/Ol2PP300wUb6hMKRGQZiqbi0ssvxw033gDJYe9fSimSySQymYz5liNe9wSlbIwjkUiYbznidd9WsC6fzs5O82VH/OzbWkwjKyI+9m0VGuUQGpWfRl1dXbj7b3fj7r/9Del02nxb5+o5V+O000/XN9T3o5Gmaejq6sKCBQtw7ZxrzLcFPRheyRs1ehTmzJmD6TNm5F1vaGhwbqmCrR2TZTnwWhxhW5bZGd1SQdjsQlmWA68FRyKRwOMNQqNuITTyRzlqREIYx4VBI7/fxN9TYmfUCtc9V2rNXalKfZxRSAFo7E+30BAnDvBxFC/f5AferRR0OH408oPQyD9CI/+EpVFYcI28Qthxdvz3wnXfecmTBIBksQeDkaLdv2DHNSnsWCMuKseu+xeGo98uc9H9C3ZcUyqV0mth/IOd8NptBVN3En/HYvjptgI7CgispcIzgxNeu604ThpZ4afbCkIjQGikU04adXV14Z6778Hdf/ub49Fvpej+pZQikUhg/vz5nrp/CWvhDhgwAIOHDEE0motH4rBokrKJWHCZ5sC0dGtkjPC07RbeUvSKyvaMdguPNw5lTT1CJKRTKWzZsgXbt283/MIefvTbyNGjcPU11t2/no0qWGRorJYVhFHlyC7Od+xuYQCX4XS3MACLNxSZ2ei1MOA4aWSFn8IAQiNAaKRTThr1BqM6dOhQnHHmGTjq6KNRW1urVzCcUBQlb9zbTaWkqqrKl0bt7e36391oFI/HEY/HzZeL0tXVlVeBK5aPZFlGdXW1+XIOCjQ1N+Hll17CE48/kZfOrAjMqMLwIUEaVbCCxRy2kVIUBnBRIJSiMICLRO21MOA4aWSFn8IAQiNAaKRTThr1ZKNKCMEee+yByy6/DCd9+9uorq7WjVYxykkjTqnzkaqqaG5qxvPPPYc//ulP6HKYFOfGqLpTxgItpDEbJaQp6GGtVdNC2ooNQiPfCI38U44a7W7i8TgmT5mME048UTfm3aEcNepOPpIkCX369sHhs2Zi5szDAYOR9EO3vlZV1VAiTGGbenfnQ90QVji8RhVG3IWVgcKKu7DCERr5J6xwwtRodyFJEhobG7H3Pvugrq4O1MOkGifKUSO/+YiwHodBgwZh8uQpkGXZtnXNcYq3bn+pXZO71IRlwLkwQYcVdmIrt3CERv4IM5xy0whFCtNSw8OKx+O+uueLUY4adSd9x+Nx9OnTx1WPDnU4A9j6ag9FZdt8FatFdBdFUSBJwU/fD7t7xE1i6S5CI/8IjfwRpkY0pMPbjaRSqYLxylJRjhr5yUeUUqTTaezcudP1xik8HHM+CuwLSZG1PH7hY0PmDyk1vHsk6ESgqmpoiY1/U9AIjfwjNPJHOWpE2VrUnTt3Yvny5ejq6gIC6B38umtE2bKjpqYmfPDBUsChR4IC0AznqVrlo0C/jjBXalR2RmEYBUIYtTie2Nwmgu7Au3yCRmjkH6GRP8pRI7DTgT5YshTPPftcYEbp665RV1cX/vuf/+I/r74G6jBjWccQTeZ8VHp1QkJRlFALhKBR2bqrMMLSujFTzgtCI/8IjfxRjhpRSrFt2zbc/qc/4Xe//R02btyIdDoNzWJ3oO443u1pvl5ql81mobHWtvleqZ2iKCCEFFzXNA2qqiKZTGL1qlW49Q9/wG1/+AOyDsvOnDDmI5LNZovmpkwmA82my+FPt/0RTz75ZME6VeOG+hdfeimuu/46SEXWqSqKAsXjR0WjUUc/rdAMCcgtsiwjGo2aLxfFac2bFZIkIRaLmS8XxUkjKwghiMVinmumQiOhEaecNOrq6sJ9996He++5xzGsa669Bmeceaa+tMWPRpRSZDIZLFiwAHOuutp8uyg1NTXo37+/6zWefipMXr6H01vC4X+nlCKRTGLH9u1IJZO5FqrhN1bw344eMxrXXnstZhyevwQnGo2CtLS0FPPHcTHw737zWzz22GNob2+3NarnX3ghZl81u6hR9bMYuLW1FbLLLdI4kSKLga3gC6hVj1tkeZ21l0qloCgKqGF7MTc4aWSFoihIJpOAoXbvBqGR0IhTTholEgk8/NDDePihhxyN6o3zbsS5552Huro6EEJ8aUQpRSwWw5IlS3DJRRebbztCXG41KPCG23jlxnPsuLGYN28ejjjyyLzrra2tvbf714jmY7aXH5SQBvR5l4WfWpwXeMHmVNEpFUIjfwiN/FOOGvGCn3+XcN13xngtBcGmagZ/8aDgtdEwErUS0oA+Dyfogod3RwYdd0Ij/wiN/FNuGnEom0wjXPddqZGCTGyUOYSQ2OhuKBCCjDsYZsqFEQ6ERr4QGvlHaOQfY1XEqlpCirjCK/mu8Ep4vy+84v63bn5fkoqcgy2WgkpslOQcDE3rMLqWtJBm5Kls544g4s5I2AWC0Mg7QiP/CI3cYeyqlAwH3ssWh25LkgSJSJAdnEQkSJJs7yx+U4rf9oTfG+OMx6NbCNh5quYbBiSe2ILOQKqqhpJRKVswXepEbUWYYzZCI38IjfwhNPJPYBqxrfHi8ThqamvR2NCABoOrb6i3dA2NDQWusbGx4Bp39Q31aLDwR/fP4poxHCe/cy533/z7Xf7b36tvqC/qf6PFNePva+vr0NBQj8aGBtTU1CAej0Mq4VCEPvtXZpsI87EBI06zFu1m/8Jw9NsFhtm/fPq5YjHl3++sRTt4+Gb8zlq0emcw/1Sb2Yx+Zi3azT70q5EVisWRUByZbbRt9b1CI6ERp5w06s7sX68aUR+zfwmAispKjBw5Evvttx/2HLYnYrE4CMn5JxWcrZr7uyzLFmeWOhuPdDrN9C7UQZZlaJr1WGRVVZXhX4X3d5ELP5vNIpvNmm8CACQpNxu3MByCiooKF63LXb/TNM2kKYFGKUApMpks1q9fhw+WfoAvvvii6BIxfvTbmHFjceNN1rN/85bU8JqVOQM5FQZejarMmtuEkIJwSl0Y8FqpOVGXujCAntgKzygsZWEAnxpZ4VQYgHUxCY2sERrlKCeNgjCqsNHIj1Gtrq7GtGnTcMGFF2LCXhPMt78WGnFKmY8om0Ow4tMVuOfuu7F48WIobCmWFW6Map655y/PPyYouCBBh8NrOkGHA8PYUNAIjfwjNPKH0Mg/pdBIlmVM2n8SLvzudzF+wnhobDcgo1MMG36Y75XaZTIZ3RgF6TKZDFSmk/leqRzXZuJ+E3HJZZdi1KhRtgbVLQWpV+1Fic0NKhvf8FKz8YvKZk3yWktQCI38IzTyh9DIP93RiBCC+oYGHHTQwRg/YTxgmKhkdvz5eDxecK/UDgBisRgikUjBvVI6MH1isVjBvVI43pNAKcWwYcMw4/DDQbo5vl9gVGFIbEHXGHliCzqj0hAnXaispt0dUdwgNPKP0MgfQiP/+NGIF+51tbUYNnyYqxaU0MgfkiShqqoKQ4cORaSbpzfZvqXa3ZlytMhYNUNjmxsHnQg01mUSdDgwxF3QdFsjlwiN/CM08k/YGgUdll+NNKpBM40rOlHOGgWaj2hu/LUYxcxa0Q31Kdv82c5yl3JD/Ww2q9dK3OJ1QgZ8hhOLxTzXlIzjHG6JRCKeM0MxjayQPG44zvETd0IjoRGnp2rU1dWFe++5F/fde6/j5Bnzhvp+NKLsQOyFCxcW3VCfEIL6+nqcdvrpuObaa/SZvG4NWTlphIDyEWVzBpp2NOG+e+/FAw88YH5Eh8e73Yb6FRUVkPiH2bloNArCZq/xiDM6zWLpgBlJkgr8tXIym+puDsPJmf1w4/gRPWa/nJzbbzA6ngHMfjk5GBKbW1dMIyvHa8xendBIaMRduWnkVOHnaOw4Me66o5EbKKVob2/H0iVL8Nlnn+mtNbN/dq7cNAoiH8ls1vTKlSvwzrvvAC4qLZRN1DKHFYlE7Lt/jWia5rnm4gduoN0muO7gpxvGK4RNuQ86HAiNfCM06h7lplFYuGmMcCilWL16NR584EG89+672LFjB5LJJNLptCuXTCahqmrB9VK6TCaDrq6uwMNJs+/JZrMF1/24RCKBL7dtw1vz5+PvD/8dqz5bpce5Xwh18Wu+bkm2WJ90x59ux9NPP+3Y/Xvp5ZfjhhtvgFSk+5evW5Is1nbZ4XVtFAzrliS2VZXiotvC69ooDl//F4lEXIXjZ40himhkRcTH+jUIjQChkU45adTV1YV77r4Hd//tb47dv1fPuRqnnX663v3rRyNKKRKJBObPn49r51xjvm1LPB7H2HFjMXXqQRgyZIhjlyZH0zSk02kQNmbsxpjzHYa8wo/AkyTJVTgR1vL0Spod0E5cHtcmsV2orEilkti8aTPee+89rFmzxny7AN6CHTV6FObMmYPpM2bkXW9oaPBmVGGRqIMwqnBY+GumO4UBWGTw5r8T3S0MwL6p2Pd4LQw4ThpZ4acwgNAIEBrplJNGvcGocggby+WVpmLwcpk/W6zId+OnFXnlvwuD5zccmL6pO+GobL2qG3/g0qh6ro7wmnbQqGxhrp8akxco6xv3k9G9ogWxH6gFQiP/CI38UY4a9UR44a+qKrLZLDKZTFHHtwM0/9vOmX/v1pn9MPtrdubfe3GlCqdY5cwPvnKaGtLibN6FEEaBEEZG5eGEUfAIjfwhNPJPOWrU03DTmhJ4p5Tx6juXqUUW/lKD6w5hFQiazzVkXqFsJl7QBQ9caFQqhEb+ERr5I0yNeiTGAtavc8L8rNk5YX7WyjlhftbKOWF+1uy6CQE/tdWabuUw3hdtieE81e6isUkdQRcIvFsljIwaVlcZL7RLWROzQmjkH6GRf8LSiBO0Rm4ghICQXOHt1znYBMDiebNzoti7FQk6d2apgyvmgfl5szOSi8siHhogyM0XAqW2vzOH4RleAw4anpjDKBDC6MKCofsvaMIKR2jkn7DCERp1j6DjzS0UuUaLX1cM8/Nm50SxdytmFHmDzM4Vw/y82VlhZyCLYZUePM/+NWM3+xeGWXqX+Zj9awevWXBj3t1Zi07w90eJZi1aQdhMPt6K8DprkeOkEYeHgxLNLLVDaGSN0KjnauRl9u8ZZ56J6upqkJBn/0qShMbGRowdNw4DBwxAJFo8HjW2WUUxiGH2ayQSsTQWxcgUOYsUpnBktqm9V7LZbIGtMWMMhxBiu3Qnk8lg29ZtWL16taUNMyOxo99Gjh6Fq6+Zo2/Az3/na0mNmbCNKgy1CkppoIUBz6iqqgZWGHAi7IDmeDzuqTDgOGlkRGLdjLIsey4MIDQSGhkoJ428GNXTTj8d9fX1ACvjvGrkx6hGIhGMGzcO3z7525i0//7o27evraEwoqoqurq6zJcLMGpUXV3tWE7b0d7ebr5kCdcoFovZrh91IpFIeM5H+Qeo56CUIpvJYvv27ViyZAmee+45rPv88wI7ZsRsVKfPmKFXUHk+6pVGlUPYvphecVsYwJDYKisrAy0MwOLLb0Jz0sgM16G6utp8qyhCI6ERp5w08mpUa2tr9ZaWV438GNURI0bgytlX4phjj0VNTY1eISpGOWnEKXU+omwryGeffRZ/vesubP9qe4Et41gZVbC44/nIexu/B0HZDMAgoYbDeO0iulSEFY7GTrEIYzxcaOQPoZF/wgonLI2qqqowecpkzJo1S990IggHw+xtGAxFEC6scCgb27cLh1+vr6/HrFmzcOihh4I6TEJygucj0tLSUjTlOXXZ/O43v8Vjjz2G9vb2gkTMW6oXXHghZl81u2hL1es4CFjtSHK5LRbHzzgIr+15LXy8dqulUikohg2n3eKkkRWKouhheUFoJDTilJNGiUQCDz/0MB5+6CHHluqN827Eueedh7q6OhC2J7FXjSiliMViWLJkCS656GLz7TwIIRgyZAhmX3UVjj3uWL1L0y3lpBHHTz7i+x/bQSlFMpnE8889h9//7ve2z/KW6phxY3HjTfNwxJFHAoahlNbW1gBbqpRNPQ4BLaSNypWQNvVWFEU/jSFIlBDX+QmN/CE08k9v14i3pmKxGGprawGhkW/UIjPEiWHSmVP8UrBZxOYbBux/3U2IwYUBDWH9HUJMbNlsFnIIu+3wxBZ0OBAa+UZo5J/erBFvkSaSSTQ1NeVdFxp5x0kjSilSqRSamppsW6kcCmfDFrwyhhpXkFB20GxYic1OnFISVA3YjBrSrj5CI/8IjfzTmzXSNA0tO3di6dIl2L59O8DC0dgpLXxsMiiXyWRADGOTQTkejvl6qV02m9Xj1vhNANDc3IwPli6FxuLWL1IkEumWB26gbFpz0BmV1+yCDgcBZSAreG0x6HB4LS7ouBMa+Udo5J/erFEmk8GSJUvx7DPPoLW1VTdyhHVZSuzEmqAcpRQRdpi3+V4pnaZpiMVigYdj9T1NTU149pln8OGHHwGGPOAH0tLSQiNs3ZCdR04Dw3YTlYxHv53PJirx8//swvE7wcIKyWHSBe8794LdNO5IkSO8/AzeW02U6I5GVig2U+2LhSM0Ehpxykmj7kxU8qoR9TBRiSNJEvr164eDDzkYhxx6KIYMGYJoJLdO1Ukj2WaNphOJRAKqRReoXOTIPT7u65ZMJoN0Om2+DLnIecNVVVWeeh5UVUUikTBfhiRJSKVT2LRxExa9/TaWLFmClpYW23BhmJA0dtxYzJtnPVFJn/3rlAicCgMvRlVih8Uam9xGSl0YwGYbxVIWBiiS2EpVGKAbGllhVxiAhSM0skdolKOcNCq1UYWDRn6MKljBXVFRgT59+qCisgISKd4aJmztqRecDBpvJVvhxdDB0P1qhVM4kseeDbtwKKWgALo6O9HS0mJp4M14MqpwSAROhYFXoyrLsm04pSwMwES2itBSFwawyagocWEAnxpZ4VQYwCEcoZHQiFNOGgVhVGERDrphVGGYn2LWQuAPHp+UzSUohhujmleFURTFcy3ADzwcrzUor6jsFJ2gw8FuiLuwwgk67oRG/hEa+SfscEoVd1aVG4F/eHy6MahuKVBaKdGMPApAY39awROb1y4Dr/ACIehwYJh0ETSl0qgYQiP/CI38IzQS9FQIAKnIHgyWKZcntm4lbMKcA4qigISw3IZ3J4WRqLUQDmhGqTRygdDIP0Ij/wiNBL0V25TEa1dBJwIeTtCJmneZBF0g0BAPaBYa+UNo5J9y1ihoSqGRMMylp9RxSpLJpENDNpe4nQK87Q+34oknnnA8peaiiy/GtXOvheTQBUIcZnuVEkmSQslEhJDQurGKaVQqhEb+ERr5IyyNurq6cP999+OB++93nKg097q5OOvss/WN7f2iqioWLVqE2Vdcab7lCkmSQmnJlzsqO3zBLXzv39Fjx+Da6+Zi5qxZgGGiEuDykPJEImF7AG0pj35Lp9NIp9OeBuK9zgoEqzEW22DZjNeZm2AFaWdnp6dw/MzcRBGNrPAzcxNCI0BopFNOGvk5+o1045DyZDKJ+fPn45qr55hv21JZWYn9D9gfJ5xwAkaMGFl4nqqFjVdV1XNaqKysdCynreDf5CWcWCym713ghZTHAwxkWUZlZeWuC8xMUUqRzqSxZvUaPPPMM/j4o9zGD044Hf0Glo9cGVU+ZVy1mOpeSqOaSqX0U93ditOdwoCwKfFu8FMYgE2xjhRZ2G7Ea2HAcdLICj+FAYRGgNBIp5w0CtuoJhIJLFiwAHOuutp825La2lqcfMopuHL2lWhsbITscoJVOWnEKWU+ouy4ti2bt+Cvf70LTz/1tPmRPNwYVdd9KkrI+2cG3d3Dm/1hfZOfROoVoZF/hEb+KEeNwsJthUeSJEycOBEXX3wR+vfvD5lNrCKGc0GdnMbWyUbYNo1BOk3T9FNngnQ8LZive3E8f0SjUQwfMRznX3ABDjzwQMDUnesVTzlOCenUAoXNlAu6QKBswW/QBQJlky7CiruwwhEa+UNo5I8wNeopSJKExsZGTDnwQAzdc08QtqzJbCCKOU53DVExB1ZZCMuwdiccMOPJjevQoUP1lqebFrAdnnMbLxD4S9lBiqzlKQavaRcLp7tobOFvGAVCmIWpG426i9DIP0Ijf4Sp0e6Ga1ZTU4M99hhivu2ZctSoVPlIkiTU1NRg2LBhiMfj5ts6FIAWxHmqbiOMWI+du4Z3lXU3wooRVmJDiF1YbjXqLkIj/wiN/BOWRrsT3lrSKEU2m+t16C7lqFGp8pGmau4ndTlI4cuogh0sW4oPKUaYBQJCXH8XRtxxjbrTleEGoZF/hEb+CFOj3QmlFK0tLVi7Zo27wt4F5ahRd/IRf8/WtlasXr0K2Wy2W/nEt1GFIaMGjRLSAno1pB1jwkxsiqL4mrbuFaGRf4RG/ghTo90FpRQdHR14//338e4770BlE8M0w8Hbflw2m4XKtp403yulU1UV2WwWEjueLkiXyWQQMRxg4NbxdLRy5Ur857X/mCWwxCkPdcuogmWgMFDZDEOnjykFWoi1OC2krdjC6lUQGvlHaOSPMDUCG3vbHaxevRq3334H3n33XSSTSWQyGWSzWVdOURRLx/3QNC3vuvn3bp3Zf6N/6XQalI21djccp7CSyaSrcDKZjH6ea1tbG+a/OR+//+3vsHnzZhAXG6jwSqNVPnK9TlWxWXtkt07VePTbpR7WqTqtEQPLpLx2gW6sr3M6rgmGwoBXGrqzdssJ3nLg4XRn7ZadRpyIYQ1ZxGHtlhNCI6ERp5w08rJO9ayzz0ZlZSVIN9epzp8/H9fOucZ825HGPo2YPHkyxo4dh4rKCn1oz64Q11gLzprcr7lh4GkhFotBkgqNRT6F93fFm/Xb5IeTizvrtGD9e04mk4GmOT1D9ZYxWNrI6wmi7B0IkEwksHLlSnyw9AN0dXXtesYG/g2jRo/CnDlzMHPWLD0ceN38wa4wCNuowrCpBAIsDGAqEIIqDMCEkmUZiqJ4Lgw4ThoZ4YW2n8IAQiOhkYFy0siLUT3t9NPR2NgIlXU9e9WoO0bVDClqguwo1uIuNn7bnd8TS6O8C1rkq7oTNgudt0YNrVI3LVSzUZ0+Y4ZeQYXXzR/8UCxq/BJWF5Ya4thQWF1YvLAOGqGRf4RG/ihHjazgrXKJrbEkFmswizoAxOk/8/Nm5/hfzvjYumJhd/f35ufNTpIAQnSDyrv0ixnUPAyPmvNRYEaVkpwLCv4hniLCB8amfZBobFA/DBS2KUDQCI38IzTyRzlqZIZ322uUQmV/9+yggUK1d+bnzc78fJ4r8k4o9nuL3+T9vnvvrhkmKPH4dAsBO0/VdN2Yj0hHR0fR3JTrY7e2v3/43e/x+OOPo729XX9JDu9euvC738Wca+YU7f6172O3J5FIeC4UCvrYXZBOp0HYTDkveOmCAsuoXHQvOGlkhaqqUBTFU7xBaAQIjXTKSaNEIoEHH3gQDz7wgGP37/U3XI+zzzkHdXV1IGwM16tGlLWO3nvvPVx+6WXm24IejPGUmutvvAGzjjgCMHQLJxIJSIrFDCqzk9gxQ1bOTSFBTbOx7BwMBYJbx2umPHG7cRrrIvLiKKXIsk3Kzf45ObM/xRzYQDxYweDWOWlk5WRZ9hWO0EhoxF25aeTGAJs17I5GTg0MQc+GsPF7c7rTNC247t8wcZMZSgEN8eBkNYT1d4QQZENayiE08ofQqHuUm0aCnk8oRjWMcQca0iHQYIVP0BmI1+SDDocXCGEUcEIjfwiN/FOOGgl6NlLQiQ0hZR4YxiqCJqyMipBmGRJ21mLQ4UBo5BuhUfcII5wwNRL0XCSVHZ8TJGF2j2iaFkqBAJZRw6iZCo38IzTyh9DIH2FqJOiZSJRNHCh5IjAtUuW1uDAyj6ZpoYQDw1TqIAlMIxNCI/8IjbqH0EjQWyg2z1uvimaz2ZLW4gjz3Dw6E0ZtESFlUk5YhU+pNbJDaOQfoZF/hEaCng5F8T0YdKMaZrdFWOGEVSBQNpsx6O4yoZF/hEb+ERr5J6xwBD2HgtQb1kB7WOGoIUyp54Q1DhVW3IUVjtDIP2GFIzTyT1jhCHoGlik3rESgKAqi0ShIwFP4wxzfKMcCQWjkD6GRf4RGgt6KbaoNK7Fl2dquoBMb78IKOhyEuCRBaOQfoZE/hEb+CUsjwe5Filhs8cUdAESjUagOW5dpLnZhIezcQTsHFg5YAvfizH45OUIIYrEYCJud58VJHraYk2UZsixDkqQCf4o5eNxijsedk0ZWTvO4xZzQaJcTGpWnRm4MuGY60Ls7GqkhbfwvKD18/N+c7iKRiLvzVLu6upDJZCxrWKU+T5WfEO8Wv+dAJhIJVxUCjp9zICml6Orq0jO5G7yeA8lx0siKiI9zICE0AoRGOuWkkdfzVGtra/XGgleNaAnPUxWEC8+7xvNUjdddn6dKKUWEbYbtFr5M1f0vcvCaadAQdhZhkPCavFNFolT40cgvQiN/CI38EaZGYRJ0vAmCgbBGox2uVVXZmivXBUKRtTx2KKyLyG1t3i+qqoKwkwaCJqwlCZ418onQyD9CI/+EpVFYeGnhC3oGxQwqvBhVGGawlVOBgJCOYAprYbvQyD9CI3+Uo0YCgV88GVWEWCDwWmnQXSRhFQiUnTjvdTzJD0IjfwiN/FOOGgkEfvCV0xRFQSwWM18uOWHWtMMYGwqzQBAa+UNo5J9y1Egg8Irv1M/XXAWNEtIEBUVRQhkb0jQNaki70wiN/CE08k85aiQQeMG3UUWIEwcUvv5H1LQ9o4a0qbfQyD9CI3+EqZFAYMQpD3U71fOxlKDhBULQ8Jp20AWCpmmhFQhhbeotNPKP0MgfYWoEsQxGwKCU2jYoA0shhBafeuyVsAqesGramqY5ilNKwur+Exr5R2jkjzA10sTs4681FOzoN5a+rfJRoKmdMFdKyq0Li7f0rcQpNXaJoNQIjfwjNPJHOWok6JlQ7DJsVvko2JQeEGHV6FV2tmMYBYIa0vh0WAWC0Mg/QiN/lKNGgp6POR8Fm8oDhNcQgl7nx8eGgoZSCkpp4GHRkA6ChtDIN0Ij/5SjRoKejzEfkWQy2a3cdNsfbsUTTzzhuKH+dy++GNfOvRZSkQ31/cDHOIIuFPiYjRbC1mKEkMC/J0yERj2fr7tGXV1deOD+B3D/ffc5bqg/97q5OOvss/UN9f1A2azlRYsWYfYVV5pvC3owXPMxY8dg7ty5mDlrVt51TdNAWlpaiqY6p5Mlfveb3+Kxxx5De3u7rVE9/8ILMfuq2UWNqteTJQCgtbVVz6RuM1DEx8kSnZ2duv+qhxnPXk//SKVS+kkmXsJx0sgKRVHQ1dUFWZahBHj6B4RGOkKjnqtRIpHAww89jIcfesjRqN4470ace955qKurA2Eb/XvViFKKWCyGJUuW4JKLLjbfFvRguPEcO24s5s2bhyOOPDLvemtra+/t/jXCu2H81hzdwjNn0F0+vGDzUgD7gdeYgw4HQiPfCI38U44aCXo+wabqEFHZLMOg4eE4tbhLgRbS+jstxJ1phEb+EBr5x4tGhBlIP4SpkaBnIwWVCCgAlVJQAG2saynozEopDbz2C1Yg0BDWxXkpELoDpVQfaA8aoZE/hEb+caNROp1GR2cnstms+ZZrwtRIsHsgAKQiezBIgdWuCJAzqcCHH36Ijo4OxGIx3zVBN1A28y+Q7zGhsa6loAufMGvAxQqeUiA06h5CI3/YacQN7ldffYUtmzeDlmDmcBgaCXouEmVTw4NIBDyBbtmyBU88/ri+eThlYxBBOFVVkclkIElSwb1SO0VRoLFZjOZ7pXSqqiKbzQb+TYqihBKO0Mi/Exr5d1YaEUKQSCTw7jvv4qOPP9YrFN2BhxVEmSro+Uhgxk8NaNE09/uB+x/A3+66C52dnYhGo5DYYvCgnKZpoYQDNuFCZmdWBuUIWx4Q9DcRQqBpGmKxWMG9UjuhkT8nNPLvzBo1NzfjySf+iccf/wc62tvzyq7uQEVX8NeWvCU1fOKAeWq401IAuyU1ZgghiEQiGDJkCCZNmoS+ffuCmtaqybKMSCTCOo3dkU6nzZeAXbtI6Zko7x4htudY2oWdyWQK/HGChx+Px0137KFsGYVaZAmA1TfxQgKGsJ3QNK1g/Mj8dRIrVI1wjeywCttOIw4hBJoHjezIZDKAB404MQ8awUEj47cX08iI3RtbaWSGa2QMu5hGRnjYbjQyf49RIyvdrTDmI7vvtsIpH1mFbacRR6MULS0tWLVqFTZu3Og6f1stqens7DQ/psPLPaOOVCyp6bVIhIBQYMy4sbjxJuslNQXrVAnbp9OYIEthVGEIWJIkyJZZIQdFbtNivxBqndHconXnx2wg2y/d/fbdGfZujXfavansGmxKZ5eIePfH7ox3jVKoNFdpLFZ2cbwaVU4kEtEbK8Ko9l7cGNWC/EDZeGdQXcG5xEuhOvynQYVGKTTYOS33jJWjKrtLHZzzf5RqDuE7h02pahGe0WkF4Rn/0+AUNi0M0xR+7m/mMN2G3YvjPeeDg3P+dvo1jvfuhJ3z3Rye+7Cp33gvQV6jxJtB7Q6iK/jrQ0FL1Ygsy1BVtWQt1V3kDKsduTsF9t6A8+8BAuJY/XXeIo2COFSfi4UNkG68u3PYKPruzt9eLGyIeLfF+d2dv71Y2Nht8d79sIvFu33YKEG8O4dd/N2dv70Qvy1VsNaMLMvIZrOipdpL8dVSNaIFNjWcsMRs7QgkPatZO8KesXNOmRQF4ZkdL6KsXbGwHaPUxbc7hY2CsAqd07cXC1uyCM/LtzuFjYLwzM7524uFLZkDM1Hs253CRkFYhc7p24uFLVmE5+XbncJGQXilDVsyB2aiMMz88LsX786QgvAKXXhQMXmp10PZcInTcI3U0NAAO1dfX4+qqiokEgm0trZaulQq5aGFKhAIBL2XVCqFtra2vPLPXG4Wc9XV1dA0DV1dXWbvBb0EVVXR1dVVYA8bGhqKV9UkwzR3gUAgEHQP3g0sytTyxJWqfIIR7zcWCASCngKv+MshbIVaKviEUEH54cqoQhhWgUDQQ4lGo6iqqkJFZQUikYgoowS7FddGlUND2KdTIBB8veG7HzkZSEIIBg0ahJNPPhk3zLsRV86ejYMOPhhVVVXmRwWC0PBlHTVNE4ZVIBAEgiRJaGhoQP/+/R131Ro4cCB+8tOf4qbv3YxvfetbOOecc/A///NLnHveuZ4PaRcISoVvyxjUBhECgeDrCW+V7rnnnrh6ztW45Ze/xMyZMxGNRvOek9g+vmefczYOOfQQqOwIOVVVUV1Tg5NPOQWTJ0/O81MgKCkOC158G1WwacWixSoQCErJaaefjlNPOw1HHX0Urr/hBtTW1eXd5z1lU6dOBdgWgHyikqZpqKqswsT9JgLCqApKDEFua0zJIV112yKKGWwCgaCUaOzoNEopMtkMohaTj3K7Gal6+WOs3FNQ/VyFUq+hN7+H4OuJ09wi66sCgUCwm3j++efwxuuv4/3338cD99+PlpaWvPuEEKiqisVLFuvny/LrmqahZedOLF++PO83pYKGdHi7oOfDdxw0V9yEURUIBD0CXjitXbMWP/nxTzD7iivxzL+fKTiWja/x/NdTT2Pp0qXo7OxEMplEJpPBl19+iddeew1LFi/O87OUKIoi5pMIAMNBCcZ0JoyqQCDocSSTSbS3tzsOL23duhW/+fX/4cl/Pok333gTLz7/Au6/9z48/NDDRc+h7S6qqgrDKgBYWohGo7ph7bZR5evJBAKBIEwopdi4cSP+etdd+MXPf45f//rXePbZZ4PdU9dQ1okVEAKOoii6YZUURUExJ0kSIpFInpNlGZFIBNXV1cKwCgSC3QIvd9LpNLLZbKDlkCRJqK6qRkVFBaLRqD7bOJvNFpSZxRz3T9A7IWz/ZqNNBIBMJgOps7MTxVwsFkNNTU2eq66uRk1NDYYNHyZ2MBEIBLsFyrZPNf47KGprazFkyBA0Njbq5WA8HkcqlUIymSwoN50cAFRWVpqDEPRw+Am9kiShoqKiwC4mk0n/3b+8Rjh23DjUN9SbbwsEAkFZwMu6YcOGYcgeQwo2o+DLf0RX8NcDWuw8VfMFt/CENnLkSEyYsBcqKioC7XoRCASC3UUkEsH+B+yPQYMGWbaG+YQqYVgFUnf79aurq3H8N4/H4CFDxNiqQCAoK4yt1MMOm4Z+/frZlnGqqgLCsH7tkQgh3R4wP/jgg3HMMcegpqYGELuOCASCMoA3EhobG3HCSSdi/wP2d9zgHwbDKjaI+Poiqaqqz2TyS2VlJc448wwc/83j8wyrMK4CgaC3wcsuQggaGhpw3PHH44QTTkD//v3Nj1qiqrntE7tTpgp6LxIMtavutFj33HNPXHLppTjn3HMwdOhQyLIsjKpAIOiVEEIwdOhQnH766bjggvMxYsQI8yOO8DFW0WL9+qFb0e60WLnxHDFiBC6+5BJcfc0cHP2Nb2DPPfdEPB4XxlUgEPR4CCGoqqrCiBEjcPw3j8eVs6/E+RdegNFjxvhqcIgW69cT0tLSkjeVjScA3noFgJqaGk81rnQ6jZUrV2LtmrXYuGkjmnY0IZNOQ1FVELbOhxta40w6mR3f5IVMJmO+lIdVOHwzCy8oiuK4ZRpYWOaZgcXGYMyoqpoX91ZYfVM0GvVUeaGUFt3KzSocNxoRAqz4dAU+//zzomH0VPaduC9GjxoNyeJby0EjM1/3fBSRZcQrKjBkyGCMGjUK4ydMwB577FH0sHNFUfR1p3bwsVn+PpRSxGIxLFmyBJdcdLH5cUEPhhACQoGx48bixpvm4Ygjj9SvA0Bra2uhUYWFYfVqVBVFQUdHBwghSKVS6OzsRCaTKchM5sQWj8cRj8fznilGe3u7+VIBhLXA+U4mkUjE84YViURC/70TMttlhRcKdaazIIuRTqeRTqfNlwswa1RdXe2pIFVV1dV2bn40IoTgvnvvxTP/fgYdHR0FBWRvYPZVs3HCiSdaLhUrB43MfN3zESgQjUUxcOBAVFdX5wpPFxUgN0YVJo2EUe29SMyojvFqVMESG2WnQXTHqMJUuzUjSRIkSYKiKKioqChaMzTT2tpqvmSJMZxIJKJPqHJLZ2enq8IApgKhoaHBfNuRVCqFVCplvmxJdzVyUxjAh0aEENx26634+8N/R1tbm6P+PZXvff/7OOvss1BTU1NQuJaDRmZEPsppVFtbG7hG2WxWGNVeihujajtQoHZjjBWGQPjfzQUTR9M0aOxcuiDR2MHHQYcDQ9wFTXc1cktYGvUoKM25blJuGpVzPgr6m8LSSLB7Idls1rHkoJQWnGdYDEmSPI+BAEA2m9W7sNzitUYOn+HEYjFIHicrKIbNs90SMWzO7JaeqNGf77wTj//jcbS3t3t6r57C9ddfj1NPOxU1tbUFBXu5aGRE5KPwNKKUIp1OY+HChZhz1dXm24IeDG+pjhozGtfMvRYzDj8cMDQiKyoqQKiLFJRIJJDNZl0nNj/dQmCTJdLptKeM6rVbCCyTJpNJT+F47boDyzxdXV2eCgQ/XXfogRrd9Ze/4J9P/LPXGtW5c+fi5FNOtjSq5aKREZGPcoShEaUUqVQK8+fPF0a1l8GN6sjRo3D1NXMwfcYMwGBUGxoa7Lt/jWia5rl26QctxP0zw+iGIYToY09BU44alRvlqJHIR/7gGgnKD9epR2Un3Ztr7aVGDenEB8omJoSRUcMqEMpNo3Kk3DQS+cg/wrCWJ66NKgyJLWjCqmlrIU66UBQl8O9Bj9WIAtDYn4KeqZF/RD4SfF2gYEe/mW8Y8GRUEXKippQG3hVDKQ2tQNBC2l2l3DQqR8pNI5GPBF8XKAA4dGL4ymlhd4+EUSCEkVHD7CorN43CJozvKTeNRD4SCHwaVbDEJoVwfmpYBYIW0hoySmloNeBy0yhMwjAOKEONRD4SfB1wSgvdymE8sVGX08/9orFdVYIuEHgXVlgZNeiCB2WoUZgIjfwh8pGg3KGU2hrWbueusDIPT8xhFAhhtlLKKZywNAqTsOIurHDC0kjkI8HXAat8VHjFB1qIa7vKqaZtLHjsaj2lImyNgv6esChnjYIOS+QjQTlDKbXMRyVLHTyxBZ2o+YcEHQ5CGlczFjxBf1OYGpUT5aqRyEf+CEsjQc/HKh+VzKiCJTbisHl+qbD6kCAw1oCDRlGUUDJqmBqVG+WokchH/ghLI0HPggCQKEAMxZs5H5XUqIIlNpWdeB80lM0ADBJeA1bZer8gCSucMDUqN8pRI5GP/BGmRoKeD89HtuepGvG6CbaiKEilUp4zqp9NsFtbWyFJkqeEHfGxCTY/M9HrN3ndqJzHm9dweppG+eep8t2UiPOq6R7E97//fZx51pmorasraI2Ui0ZGRD7KEYZGVBxS3mvp1nmq3UUJaQ0ZQpw8oIS096iiKIhGowWFeakJU6Nyoxw1EvnIH2FqJOj5BJqDwpo4AFb7K6cCIZvNhhJ3YWrUm6DMOVGOGol85I8wNRL0bALPPWpIu5HwweKwCoQwMlBYNeCwNCpHyk0jkY/8E5ZGgp6NFIlEAk8EvBYXdEblExOCDgchZiBeow86HP49YN2Afh2fIBL0JJGg0WhubJFPejF/p9FlMhlIbLcd8z2NrQktBSIf+SfMfBSGRoKeixRmbTGMzMMLsjASNc9AQROURtwI8EK0FBoRQnT/uuPP7iYie+uadKtRd41sKTRyg8hH/glLI0HPRJ/9G4lE9FaGGT8z4vgsPzORSETPsGb8zlq0wtjqMuN31qJiM8NPlmWoqmq+DPictZhKpcyXgRJqRClFNptFZ2cnstksFEVBW1sbtm/fjrbWVmSzClSNhWMKKxqNIhqN5l3j8CdlScZLL76IhQsXoqury/RU7+DEk07EjBkzEIlGC+I7m80im83mXeNIhhm0kiQhHo+jtrYWAwcOxNChQ1FZWZk3ecap4BX5aBc9MR/Bp0ZUzP7ttfD8OnbcWMybZz37N29JjV0iKGVCg0M4pSwMwDIpb40ZKXVhAIeMWsrCAA5x51YjHh9tbW349NNPseCtBViyeDE2rF+Pjo6OvMk5hBBPC2CooetQsAtCCKqqqjB69GgcfMghOPKoIzFhwgRUVlY6tpxEPtpFT8tHHD8aCaPae3FjVPP6dsLqtuDhBN21pKoqCCGBh4PdEHd+wtE0DclkEsuXL8cvfv5zzL7iStx37734+OOP0d7RAc1UkFFK9VmwrpwwqJZQStHV1YWPP/4Yd//tb7jk4kvwvZu/h3fffReJRMJ3vIl85J+wwwkj7gQ9gwKllZDHHYIeS+EFQtDhwDTZJ0j8aKRpGpqbm/H3v/8dl1x0MZ5/7nmk02m9sJSYX5RNMvLjBM7wuE50deHVV17BvBtuxJ/v/DO2bdtm2Tpzg8hH/vGTj/wQlkaCnoFlyuWJLeiErSgKSAj7Z/ICK4xErYVwQDM8aqRpGr766iv87re/w29+/X9ob2+HxGarUj5jle1daXaC0sHjGmyscufOnXj4oYfwq//5FVavXm07nlgMkY/84yUfdYewNBLsfmxTUrl1j/DCLOgCgYZ03BVcakQpRXNTM/7v17/GU08+qcezeSxJEC4amwWcSqXwxuuv44+33oa1a9f61kXkI/+4yUelICyNBLsXkkwmHfucaAinWMC0FCNIJEnSE3eQEEJC68ay00jTNHR1deGOP92ORx55BJLHvV0F4SBJEiorKnDMscfiqjlXY/DgweZHXCPykX/s8lEQqKqKRYsWYfYVV5pvCXowPH2MGTsGc+fOxcxZs/KuAwChLnJgIpFAJpMxX7bFz6xAAEin00in054Kfq+zAsFqjMlk0lN3m9dZgWCZtLOz01M4fmZuwkIjXkA8/9xzuOUXt3h6B0G48G7BPn374qyzz8I555yDiooKkY8YuzMfFcOPRpRSJJNJzJ8/H9dcPcd8W9CD4cZz1KhRmHPNHEyfMSPvekNDg333rxE+vhF0LY4bgjBqpWAZIkh4LTvocGChESEEzc3NuO+++/RJJoKeCWVjrc1NTZj/5pv4ZPly8yOeEPnIP+Z8FBRhtooFpYOAnadqvmHAda7jA/pBw7t6gi4QVLb9XFjfFEaBwDXiLZQXnn8BmzZugsQmJQl6PhvWb8C7776LZDJpvuUJkY/8E1ZZ56UnQdB78JTjlJBOluAz5YIuECib/Rp0BqJs0kVYcReLxdDV1YUXnn8eYOELej6UrWf95JNP8fnaz/VrfhH5yD9hlXWC8sNzbuOJLeiuC17TDjocPgszjAIhjIyqaRoURcGqzz7Dhg0bgG4WzILw4Gl96xdfYPXqVSVpyYh85J+wyjpBeeHZqCLEWhzvhgk6UYdVICDELqylSz/QC1RB74C3+Hbu3IktW7bom3N0F5GP/BNWWScoH3yXuNlsFpFIJPBWUJgFAkJcfxdURuXxtGrVqrx/C3oHhBCk02ls374d7e3t5tu+EfnIP2GVdYLywLdRhWH8LmiUkBZnqyHtGBNkgUDYOsWmHTvMtwS9iM6OztwBByXcAlLkI/+EVdYJegdOecjVOlU3J0sY70d8rN2Cy5MleIbl+F1f53SyBC8MVMO6OD/r61Dk9A8+O9MYd37X1xk10jQNv/3Nb7FlyxY28zd3LqZxjE7yuRepxg4it4PPNDZqZHdUnBOUjZ3ZwRO1MRy/4192x7jBsIbUGHeyz23tVHbYuR087kCB8RMm4JRTT8Fee+0F6nH5hchHpclHVpSirKOUIpFIYP78+bh2zjXm24IeDCEEhAKjRo/CtdfNxWHTpuXlz4aGhtIYVZgSm5+EBheFAVhG5WM3CKgwgEWBEERhAFYgELYODyUqDCil2LZtG9LpDCRp1w47Zo2qqqry/HAD31jACbNGdXV15keKoqpq0bNYzRpVV1f7qigU62Y1axSPxxGPx82PFSWRSLjOR5WVlejXrx/69u1rfqQoIh+VJh/ZYc5HXsu6cjaqdpU/F2amV8C/b9ToUZgzZw5mzpqVV1EuqVGFIbH5SWhwWRjAdJhxUIUBTAVCUIUBmFCyLENRlJIWBlbSCo0K2Z0aWRGNRoVGJnqaRt3JR19Howqb8qi3YTaq02fM0Cuo8LKjklt4IgsalS02dxKwFPAuMj+tHy9QtqNOGHEnNPJHmBpls9nAvwdCo24RVj7qDRA2RBKJRNCvfz/ss88+OOSQQzBt+jQcfPDBGD9hPPr06aOntaDTW9iY81FJjSpYYgsj0viHBF37cRoDKyXFxir9wBOw2amGtYtBOmMBZ75XSkdtjq0rteOFtvl6EE4NaWtJkY/8E1ZZ15MhzJiOHTsWJ550Ei699FJcMftKzL76Klw9Zw6uvGo2rpw9G9+96CIc/83jMWzYsFAmy4WNMR+Rjo6OorkpFot5mpihqioURfGcUSORiOfaXyKR8FwoSJLkeSYfXzPotXDw2gWlKAo0TfMcjtBIaMQRGvVsjSilkCQJ7733Hi6/9DLz7V4DIQTV1dWYPmM6vvGNYzD1oKno37+/+TGA6fHVV1/h/ffewyuvvIqlS5agq6vLU7z1BHhlYMzYMbjhhhsw64gj8q4nEgmQlpaWol/ldRxEURR0dHToY0Nu8TMO0traqs+adCtQxMc4SCc7JUOSJE81Ya9jVXw8LGKaZVgMoZHQiCM06tkaUUoRi8WwZMkSXHLRxebbvYbq6mqceNKJOPW00zBy5MjcJB2bowf59XQ6jZUrV+Ifjz2G1159TV821lvgxnPsuLGYN28ejjjyyLzrra2tpe/+5RBC9EXTQeO1NuoXGuLByWoI6++ERt1DaOQPoVHvJx6P4xvHfAPnnXceRowYkXePWAxn8OvxeByTJk3CBRdciGnTpvmaRd/TCcyowpDYwsg81ONavu5gHCsMChrSHqdCI/8IjbqH0Kj3QQiBHJExfsJ4nPed72DQ4MEFxtMJ/ty48eNwwkknYvSYMeZHejyE5pwdUhiJzU+i5t1QXpzGJpGYr5faaZqmZyDzvVK7MMKBYcap+V6pndDInxMaeXdG/JRBXvFb1vU2KuIV+OY3v4WRI0cChq5PtxBCEI1GccABB+CQQw5BTW2t+ZEeC2HOCUlVVV873niB1+K8JDZj7ceLo2zqvvl6EI53LZmvl9ppmoZYLFZwvZROYjvSRKPRgnuldkIjf05o5M2Z6allXW+Bx+seQ/fAzJkz9Wt+qa2txaRJkzB8+HBbzXoj+kSliMOAvp/Be7tF4bJhwbmZiooKRKNRtLS0IJlIgkgEoBQOLW3b3XCcwon42E3IaTccp7C87ibktGORk0ZedxNSHXYscvoeP7sJCY1yCI3C0yiTTkPTNDT26VNQdjlpFEZZR3vpRCVJkiBHZHzzm9/Cj378I8BkVL1OJksmk1j3+Tr8+c478dprr4U2pt8dJJLbpnDMuLG48SbriUq6UeVCZy32QS1lQgPbMcYqnHg8ju3bt+NPf/wjdjbv1K87GVW7zOEEYTuveEE17ZXqFi/xBjbOZJe4KJuKb/UevFXhFsomi9hBbGbxSWyfVS8IjXIIjcLRiBACqmmob2jA6aefjon7TQQ1jBXv7rKuNxvVWCyGa+fOxZlnnQlNy+0pzvFqVFOpFHbu3Il77r4bj//jcduKak/Ck1HlWNXiSp3QYBEOZWMszz/3PH77m98gk8nYFlwCgUBgB+9KrKqqwsmnnIw511xjWX6ZyyCEWNb1VqNaUVGBH//kJzj2uGOhsFOPOH6MaiKRwIMPPIgHH3igV6xbdWNUC6qzSkgD7VbhNDU14blnn0UqlerxkSsQCHomlE1USiQSWLpkKT777DP9uhGrMigIwgonLAjJ9dZ47Q1xwq7XpTdiGSthJQKFTboAG6d6e+HbWLlyZVlFsEAgCB9uWLds/QJvvPEGFJstBcMu66zeoTehaRqam5v1v3fXsKbTaXR0dCCTyZhv9VpsYySsxMan1Le1teHFF15AOp0CYN3tS9gMSN69Y0ygxmvCCSdc+TuwLkn+dzOUUiS6urB08RLb1ip2Q1ln9769AVVVsXbt54Chddkdw9rW1oampqaCceeeCgVAifM8HynC9gm1cmAD7Srb39Kt09iibjdOlmWk02l8sHQpa6UCFukeMIy78loopVRfN2S8JpxwwpW34+UA/9MOTdWwZcsWLHjrLRC2PtJcBoVV1hnDATNQvQmNHVbw6aef6lszyrIMWZYhseVebl02mwWlFFu2bMGWLZtBQ9x0pLtQABS5SYTm74pEIu7OU+3q6kImk3H90RGPe4Lu2LED115zDRa/vxiE5DKNuREdi8Wwzz774KCDD87dZ69SyfY4LfoRBjS26NzFp+t43WgbzNBns1lPE66Mmc8LmUwGqoeTTfhMPq/wxOMFr/vQQmgECI108jSiNDeox65HIxF8+smnmD9/vvlnOpIkYdL+k/CTn/4UEyfmzwQ2E3RZB96C7qXnqUqShNraWvy/H/wAp59xut4FTClFV1eXp3Snqioee/Qx3H/ffWhrazPf7pHwdGE8T9V43dMh5ZRt9+UmsblNaJqmQVEUPP/c8/jxj36ETCYNSnnhtivjEUIwbNgwXHrZpThs2jRQQ5dDfX29/pxbFEXRJ0O5LUyrq6t9FaRtbW2269WsqKio8LzGEKww8KpRdXW1+XJR0uk0FI8ngAiNcgiNSqsRN44bNmzAvBtuxM6du5bhGSGEoKGxAedfcAGuvfZa8+08girrjHCjumDBAsy56mrz7R6PLMvYd+K+uP2OOzB48GCAxXFra2uBRlZwk/PRRx/hL3f+GcuWLXOdfnY3JTWqvGmbzWaLJjYvCa21pQWzr5yNxYsXs65f/jq7wojH4zjiyCNw0003o66+DhrbRg0207iJYczFCoVNg+dr7IyJwE5cPtW+mN9mWltbAZYQFYcjori/fk4Y0TStqEbm1oEXjYxxYjz9g8ebOSwzVhrBIa7BNOLHkcFlV5lxOQRl3YRWmDU0auQmnFgsZquR2W8jxTQyv7NZIye/jZg14v7axQcA9OnTx3ypKDwf8XeyijvzO3tZsmJMH3YaaZqGdDqNO26/Hf984p+QJGnX7yggEfanLGHKgQfixz/7KSZMmKAbZDPFNDJj1sgN3Kj2xpYqmKaVlZU46eRv44c/+CEqKitAKdU3EDFrZISX3RvWb8CDDz6I1159FZlMxjFt9iR4eiiZUQVLRMUSm5uExmvRL774Ir5/8/dsu5EkScIeQ/fA7Nmz8Y1jjgFMhbhVgd3e1obnnnkWHyz9ABqlMO/KRFl3EvRMDwAEqqLgjLPPwsT9JuoGlFNdXY1oNIrt27fjD7/7PRLJZIGhyoN9C/+uIUOG4ORTTsYeQ4cChm/g37xy5Uq88vIr2LF9O2LxuP579vCuvyPntyRJSKfTGLrnUFx19dW60YZJI8paES+9+CL++5//oqamBpqmAoQgIssgkmHxPgUIK2w0SlERj2PGzMPxzRO+pb8vL7DBMs+yZcvwyssvo7m5GRFZht7RwN+fEL0LkwKQZIJ0Ko2xY8fgkksvRa3FTjka68F47tnn8Nyzz+b2BqUUqoMRBvvuaDSKw6Ydhm9/+9u2W9K1tbXhhedfwOL33wdl3bKEFmqSByFQVAVnnnkGDjr4YNTU1OSlD/6bz1auxF13/gVyJFLgD289AoAkEWhq7u8UwNjxY3HyKaegsbFRf96cj3bu3Iln//0MPvzoI/0aULi5t6qqeRUeTdNw7nfOw4S9JkA2TZTh6eMfjz6G5cuXo7KqCqBa/rwGY/rj6UPTUFVdhcMPn4lDDj1E95eHy7/9k+Wf4OWXX8LO5p2QZRmyKV+Z312SCDLpDEaOGoVLLrsUdfV1IKwVBPY9kuHYOMoqCytWrMD1c69DS0vLLs+Y31Luh+jbry++e/FFuOLKK3c9YyKIss5MbzeqYOVyXX09Tj75ZFw791rU1dWhpaUFlJVNRsPKNcqVtTmD+tCDD+K1//wHyUTC7HWPhqeFkhpVuEhsbhNaZ2cnLrv0EjaWar0LTSwWw/QZM/DDH/4Q9Q2FXVRGo8p/v+CtBbjz9tuxYsUKaDY1dOM1iUgAAYYMGYzf33or9txzz4Jvq6qqQiQSwdNPP42f/vSnAAU03YLkk1doaRokWcbMmTMxb948DBgwIC8uOY8//jgefPBBvfAAcoWC3SaNsixDUzUcd/xx+PGPf5z7t8HoGDVKp9OYO3cuPvzwQ0j83SyWLRE2VJ1L/BIGDBqISy65BOecew77CckzqgDwwgsv4J577sFX277MXWB+EkLYXw072QAgcq4lcdhhh+E3v/kN+vTpUxDX3KjecccduPvuuyERCRrV9AlpVvCrlZWV+Pa3v43vf//7tq3JtrY2/PGPf8ST/3wSiqqAahTE8N6wCIdIuXe4du5cnHPOOairq7OsVG3atAlnnnY6Ojo6dL80jep2SfeXEEis8gIAe++9N66aczUmT56sF0DmfJRKpXDnnXfi0UcfRTKZ5B4WGKZc3POCTAIFxfkXnI8Lv/tdVFRU5L23xib6/OOxf+D2O25HhKUj61gGCHIFo0Y1xONxHHfccbj22mtRVVVl2auwfv16/OUvf8HCBQty+hu0IizNGcn5TRGNRvH7P/weh8+ciWg0mjfmRthOTjwfaZqGrq4u3P6n2/H0U08VtFYJm60pyzIOOugg/PinP8G4ceN0/4wEVdYZoWVgVMF0qKmpwcGHHIIrrrxC32Cf3zNqBJZ+lyxegn/84x/46MMPe+V+BDwdOBnVwlLBBYqi+JpAweGt1IULFmDZBx8AsDZ8kiShX79+OPzww1FXX2f5jBFCCNrb27Fw4QKsWLECyVQKmUwG2Wy2wCnGWVuqgnQ6jWOOPQ59+/a1DIfXjl988UWkUikoqoJMJuPostksVE1DfX099ttvPzQ0NECzOO6qqakJn332GXbs2KG/XyaTQSZr/e7ZbBapVArpTBrTpk1DZWVlQaY3arRjxw6sXr0691tFQYb5b/Yzk80inckgzcJuqK/H2LFj8/w1097ejs7OTmTVXFxmWBjcD7OfPKza2tqCioARbhSy2Sw0qrH4yPlt5XjrzKrCYqaqqirXYqe5iTaKusufDIuHAv81DZlsFjt37rTt2gKAAf37Y/TYsUhnMlBUNRfPSs5Po79KNotUOp0LX1Hw5VdfYt26dWbvdCiliMfjGD9+PPr16weFzaDkcWt03N8sS9uZTAbvvfseMplMQUWAtyqOOfYYVFZWIplK5d6Rp0FTOslkM0hncmO2iUQCq1evxuef55ZYKGwc0hjGsGHDMHXqVDT26ZPTR1Xz0xv7k7tUOg2V7Xn81JNPIZFIFKRtylrXPB9JkoSqqiqccOIJqK+v19MURW75g8b+VDUNn3/+Od5ymNRkprtlXTlD2eSk+W++ieuunYtf/OznePONN7F161YkEgmk02mkUils2LABL734En7205/hl7fcgqVLlvRKg+oWX0YVhjVXfpAkCdlsFo89+hgURQMh+a9BCAFhNcuRo0bh8JmH567Z1BZhKISXL1+OZcuWIc1m8PHrdg7MyO8xdCiOOvoo1NbWFhQ8/Lk1q1fj/XffA2FdxfxcvXxH2EImAqoCVAUGDxqCSZMm6YZZZady8HfYsGE9Nm/aCKoqoJoGqrFZjk5Ooxg8aBD2mzgR8XjcMm7S6TQkScKKFSvQ3t6eiw/Nwi+jM8TlgAEDMGLkCNu41zQNia4uZFJpUHXXpBjbzEJZy50CfRobC7oizVBNAzSa6yY1v6fJUZVCUwGqFVlExpY0VFdXIR6PgmoqoC/TIrZOU1UQmpsDoNrsX6uqKiLRKA6ceiBgaAXaORjiuq21DevXrUPGYeYpIQTjxo3D0D32AFU1UFUraOlxuL+5CoCEVavWYP269ZbvTinF0KFDcchBB+f8Y3HK07Q5rnPxnQv/iy1f4CPWHU3Y0WfEsCewLMuYMmUKxo4dC40tyciPg8I44ZWWN998Ex9++CEUi7kI3C9uWAkhGD58OI46+iiAdSMb17sT5L6jqakJCxYswJo1a/R7xehOWVfuaKxXaevWrXjppZfws5/+FJdefAkuvfgSXHLRxbjowu/iqtlX4df/+7+Y/+abaG5uttSzt0AASMXOUzVf8ILq4yglnnnefvttvPvuu+ya+SlAkmX06dMHRx55hN6qsStswDJVMpnEkvcXY/Vnq/VrTo7X0imlOP644zCgf3+AGX0jPAG8/PIrSKVSiEYiejdYoct1kUkk53dFRQUmjB+P0aNH6+9EWU2b77CyccNGbNmyBYRIkIiU89vhv4icG5c68MAD0dDY6JhAFUXBBx98AEpp7ndgXXhW/xnipLa2FmPGjkW/fv3MXuqkU2kkEkkobA9QScrfmMPsJEmCzMZw+/TpWxDPZgjTWwaBRAveNv8/ybgxiLO/YBNmKisqIee9t32akSQZEiFob+8ADO9mhMfB1ANzRhXIdRub/SK5gPQ4IayLfvPmL/DVV1/l+cnh4e25554YO3YsqqqqHOOc+08IQTSa68JcvPj9XEXFglgshm+e8C2ADYdIxOCvxX883NbWFnzyySfYsWOH7pfKlg1xfUeMGIGDDjoIffv2hczWNervicJ3z71zbiP6p596aldXtwmejyKRCCRJQk1NDb75zW+itrY21+XOCsGcQd31mzWr12DBW2+ZfHPGT1n3dYGX6aqqIpFIYPv27Vi9ejVWrFiBtWvXYsf27Ugmk3kVqt5OLu1aU7z0KULWx9mBmqbhoQcf1DOfGUopZFnCyFEjMePwXCvVWCu144OlS7Hw7YVIphKgVIWmqaBUc3AqFCWDPfYYjKO+cTSqa2qgsdlpxgJfkiR0dHTg+eeeAwAoSsbCL+52JTLKWnuT9p+EaDSal5g01gXe0tKCFStWomlHMyjlrRsnl5vuTynFQQcVTpgxIrEegSXvLwYAqKpi4Z/Z5d67sbERo8eMBrEYe+V0JbrQ2tKCLFtDWCy+eesCAPqxAtbu3WGozKiaCmpq0RQ4TYNGlZxTi9eEq6uqEY/FoFFApdTgf+F7U6pBUVWoFNi+fQdUVbWsEPB0M278eAwZMsTUUi30MxcnvOVI0LSjSe8Ctnp/SmmukjZhAvqzCqCT3zlHoSoKAA3z35yPZDJV0J1JWMvy0EMPxYiRw6GqWVBaTEuV5TEN69atw0cffaR/K0xdwZIk4eCDDsbYMWOhKSo0VTW0egv9plRDNpsBQPHKy6/gg6VL9bg0w/NRhE2AGjZ8OGbNmgUAkIyT8BiUUuzYsQMLFy7Eeofudiv8lHVfJ7gWHGP+NN/r7VB23rAVviYqWSEbZnvZDd5TNgFj/pvzcekll1hmEjBj0K9fP1x6+WU45ZRTAEPNIGI68YFPVFIUBS88/wL+/e9/I5VK5Qo9G/8pq1VJsoREIoHjjj8OJ5xwYp6B4i1Ybvg3btyIX97yy1yBZOMvh7LaNwCMHDkSF1x4PgYMGJD/DPNj06ZNeOKJJ7Fy5UpEIlEQQiFLkmFB0S4oACLlKhh1tbX4/v/7fxg5ciQIIbYabd26FT//1S3IZDKISDKIqoEg18qwTBRsZufIkSNw6WWXYdSoUbpuMM3+bdm5E0899RQWM6O9y4t8Q5xXEBECJZvF9TfegClTpljW/ikbS33i8SfwyCOPoa621rICxv+tUQ1EyqWbaDSKo444Eued/50C4wFDGly8eDEee+QRfLF1667e4l17iuTDWqqpdArDhw/HD37w/wr05FBKkclkcPuf/oS33347N3bLZvnymnoBhEBVKWpra3HSt0/EEUfkjII5H/F3X79+PR584AF89tmqnIYmPwsKMEKgabnZ3PNunodhw4YhGo3mpZf6+npkMhn8/eGH8cILL6C6ulp/bzsogKySRTwWx7HHHosTTzrR/IiejzQ20/8/r76GZJH8yZFkCR0dnTj++ONw8imnIMYOgbeCp+VUKoWlS5fi5ptuRsLmLFpCCAYNGoTLr7gc519wQV76tstHRtyUdU7QMpmo9HVEIrlTakaOHoWrr5mDWUccoVcg0Z3Zv3Zwg1csoV383YvwFts2zBw8L+wPOOAA/O///dpyyUzEsP7O6n4xFBfHNcFUIPAlNV7Jm81rA2+xKYria50qAtDIDqNRdWJ3aFTjYQ2kEaFRz9aIUupqxx0ezo7t23HH7bfjhedf0CuJVhx55JH40U9+jGHDhumGNQyNhFHtvZiN6vQZMxCJRPSeFN+zf+1w6qLlxvPtt9+2NahgRrWurg5HHn0UGhoaLJ9RFMW6lVVieDcfHz8KCpVNXgrrm+w0KiW7Q6MgERr5p7sauc17vILQ2KcPjv/mt1BVXW1rUAkhWLVqFd5euFA3qF4ISyNBz8ecj/ylchso71a1yDyE1RgfuO9+/d9WEEIwZI8h+riI3XO8lshrwBobr/Pi3KCw8Uuv/ltVBswY/VXY8h434bjxGwY9jE5RckssrO559R+GWZhWLp1O660743W7gs4Ks59WLp1O572H2/d3encrxzVyi1McOzn+Xlb5yIgf/3le4RjzkRGvccP9NvvDUUzb/nn13/zedlC2+cBee++FI488EsQ0P8L43NatW/HW/LewefNm/ZpbeNxb+S34+mHMRySZTLpPST6hrCa4dMkSXHD+BbaGUpIk1NXX4YorrsD5F1wAzcV5fdwQeSnswMJys7m3pmn6mirZYV2lGVmWHceAwHbysXpvu1Y8JxaLuaol8/WAXiCs+91qPNKMYjhtwglN0/SuObiMG7D3d1piYoZSigibsOLm/e3ivxixWKxg4pkVKjP4XnEbP27j34wsywV7F5s18hM3hG1Y4TRMwo1eKpWC6rJia8S8eYUdmUwGixYtwvdv/p5lFzWP2yFDhuCyKy7Hqaee6srfUkBZZXrRokWYfYX97k6Cngfv/h09dgyuvW4uZpoaf5qmgbS0tBTNkV7HQRRFQVdXF2TDfreqquKHP/gh/vuf/0Ay7njCXoggt/xgn333xZ133onBQ3IbNTtBKcUHSz/Ayy+/jE2bNrJM4VwQETaTeOjQobjo4oswlG0baMcnn3yCP9/5Z0jsJAbunCAARowciTPPOhMjRoww3wYAtLe14+WXXsLCtxfm7SbFa+VWhpW/+ymnnoIDDjggr2A0akRZJebf//o3XnzhhdxkGS2/AKOGTcMp3bVvUyQSwdSDDsIJJ5xgWagbxxPff+89PP/c89jZ0pJXIJvJsh1pCCHIpNMYN24czj7nHNTW1ZofBQzGcdHbb+PJJ59ETU0NK4AL38eIoiiQZQkHHXwwjjvuOMfCPZVK4YXnn8eSJUsQjRY3wBKbfJZKp3Da6afjgMkHIBqN2layVFXFihUr8PeH/64X1tzg28G12H/SJJxy6qmoravNy0ccru8HH3yAV195FW2trTBuJSixZVFmJLa15YgRw3Hd9dfnpR/jZujpVAqvvvYa3nj9dVTEKwqW/RKwSXPMiBLWCxWPx3HkUUfi2GOPtQwfbFx5x44dePqpJ7F27Vrm2653J8j7FGgscK7lVVdfhQkTJux6wIZEIoEtW7bgtltvw2uvvqq/oxlCCI486khce+212GPoUM9zJ8xlnRsopYjFYliyZAkuuehi821BD4bn37HjxmLevHk44sgj8663trYGZ1Q7OzshsbFIVVXx4bJluGr2VchYnPBOWBdNTU0NrppzNS5hM4OdCiCwjHP/fffhnrvvQUdHbv1gMfg7nXXWmbhqzhwMGDDAsobKDdvPfvozPPrII5AM+406IUkSKisr8c1vfQs33XyT5UbllFIs/3g5/njrrVjAtm+zM0gcXuD26dMH//Or/8HkKVPyCi6zRpqm4dxzzsWSxYsLKjFWEGb0+vbtg/POPx/f+c53LDUwGtVHH30Ud9x+B3Zs3w64+Ab+HjMOPxw//NEP0bdv3wL/YWg1PfzQQ7jt1tv0AsvqWSOEtVBP/PZJuN5kNMwkE0nccccdePqpp/SKnxMSW6KhaCqunjMH55x7DuLxeMEsWo6maVi7di2uvPyKXRtvFAmDf9+BBx6IG+bdiP333x+d7OAHiZ1XCYNR/fjjj/HHW2/D8uXLcxUjF/5TSlFZWYknnvwn9tprL/0en6zFDe+bb7yBH//ox5bf5sSxxx6LeTfflLdlnZHOzk6kUin89a678OQ/n0BHRyeoYd9lGOIBhjTFDf6ZZ52JX9xyC6QiY7TJZBId7e1466238POf/dxyrSsPZ+jQobj44ovxzRO+hfr6et9lnVEjJ4RR7b3wNONkVO1TZQnQ2LiJpml4/PHHkc1mLTMCpRQSIRg6dCiOP/54wJSxrOCF1nvvvoeuri5E2AJwJ8f7vAcMGIBvfusE9O/f3/J9wAqXph1NmD9/vl6Imf0zO5ktbO/Xrx+mz5gOibVuzVBKsX7Deqz9/HPklmsU+mV2Mpt9OnHiRAwZsgckm/fm4W3btg1rVu/aBMPsn51raGjE3nvvbfK1EJUt9Obds2Z/rBz/hoEDB7jqPuVpwOyPleOGh2+2wK/ZEYvH0NjYiKqqKhDW5W320+ggSZAiOf/a2lqhGQ7JtiqEc985UG9VuUmf/J2//OorrF+/XveH5yMeDo+X0aNHY+SoUXpXcbFvIKzSkUwm8fbCt/X3N8JbnAdMnowJEyaAsI0Y8t7Rwu9IJAJZlrFu3TqsWLHCVlvKeiGOPOoojBkzDtFobijD6LfR8eucl198CWtWr4Zkk7c4hBBEYzFM2GsvHHzIwSD6ZhO7oKwism3rVix+fzG2s8qhH8waCb6+SEEmAp7oP1y2DAsX5GbZmTMxDK27Y487Vl80X4x0Ko1lHyzD8k8+gcbGVDU2mcHJSZKEmbNmYuSo3PpOK3j4b775Jr7ctg0Sq4Ga/TI73pLdY489dMNkFUZ7eztWfbYK27ZtAzVUPJycytZp7rfffqirq7UtUIxx3tbWBom1sM3+mZ3KJvj07dcPw4cPB2zenZPJZNDR3o50KqX/3uyn2fEwGhsa8wpKO/i3uPWb+8/TGXVYoC3LMqqqKvWKltk/K5dlrZCmpmZorCeD3zPnI03TEIvFMHG//QAP36AoCpp27MDGDRvyenUo667n4VBKUV1djfHjx+vLYcz+WTlFUUAAvPnmG7bj1aqqorq6GtNnzABhPU3898b4NfuraRq2bNmC5R9/bNtzxMMbP348Jk+ZnFsPa/DHym/NMHGrs7MTjz7yiKveBQDo168fjjjiCMQrcseTmeEarlixAh999JFrf60wayT4eiIFXbvKZDJ4+ul/IWOxmbeRAQMH4rjj3LdSP1/3ORYuWIDOjg5HfzkS63rs268vpk2fjj59+tj+TmJdYC+//LJuzIpBWEuhtrYWU6YeiEab7QMppfhiyxdYvWoVKKUgNu9ghLBuu4aGBuy1z96oqq62fXfOu++8m9unsshzMLx7VVUVxo8fh759+5ofKSCTyaCjoyNvvLQY/Jm6+nrHrlkzbvzmGJ/khbQ5DrgulZVViMfjkFwsmaLIbbwBAv2IKw4v9I35SGKtt4kT99UNd7EweDymUimsX78eX36ZO/nHHJYxnAl7TUD/Af2L+s3h7/HJ8k+waeNGPW0ZIYQgHo/jkEMP0Q+B4HFIHbqZCRszX7liJT7//HPbZ7km02fMwNA999R7MPg9O/i9F194EatWrYLkorUaj8ex78SJOPhg+9aqRim2fLEF77/3PrZv317wjFfMGgm+XkiUTSIqdSLgmXfVqlV4Z9EivbZrRpIkVFRU4Kijj8aQPYa4KnwymQyWf7wcH3/8sd7tFIvFHB1/Zvr06Rg1apTt9/JMumb1Gnz44Yeu/Y+wLqxBgwbh4IMPNnurQynF5s2bsHHjRkQiEUQikQK/zC4ajSISiWCffffBwIEDC4yEEUmSkMlk8NFHHyHGZjeb/TM7/u71DfV63DgVVpRSpNNpJJMpEMOMT7O/ZiexHY9q62qLFjyEGXpZll35HY1Gc/EUzenF4WnOHGeUtfQqKisgy7IrHfhzra257l9jOjXnIx4vw0eMwJAhQ1x9B/+GaDSK7dt3YPOmzQU6cAPOJ9OMGDECw4YPRywed6VDNBpFlHUBv/POO/q7myGEYPCgwZg6dSoiLP2Z/TI7np43btyIzz77rCCOjH6DHXc3ZfJk1NTW6N9t9tP87rF4HMlkEo//4x96z0QxBgwYgJkzZ6KysjLvecorS6w1vnz5x1i2bFm3WquwqWQJvj7oE5UIG4dSLSbjmCfBFENRFHR0dCCTyeC3v/kNXnj+BVujSgjBsOHD8Idbb8X48eNtT1wxsmP7djz77LN4e+HbgE2hAOY3N9IaGys6/YwzMOXAKZYTiGCoDPz3P//FI3//O2LxGDQ1171VNBwpN+Z57nnn6S0x80416XQab77+Bp555plcV5yppcAzpBFCCLLZLI4+5hs4+uij9XFAI0aNtm/fjlt+/gvH5RyUdVXp/wYwYEB/nHPuuRg5ciQipu0gOXyiUtOOptwWhYsX7zqj1Qbjsh5JknDhRd/F3nvvrRsp8/dyg7vgrbfwj3/8AzXVNVA1Fbk54vYoigI5IuPgQw7BSSedpBsesHCpYfY2IQSffvIJnn3mWTQ3N0N2mL0M5A4eImyLxf79B2DONXNQW1s4e9mYjyg7GuvvDz2Mj5cvR21NjWMYMBTwffo04oQTT8R+kyaZH9HhGr3y8st48803kUymIBnGt+2QZAmJrgSmTZ+GK668EtRixyLKtltctGgR/vX004jI+a1t/ndzuUBYa3DWEUfgxJNORHV1dd59845Fn3zyCZ5+8im0tLTofhtV5ufNci1lSYKiqmjs04if/PSntrsZGXeVopRi44aNuO2227BwwQI9z+UKvlziJyyMk085GdfOnYvBg4uvPoBhopIdVvmIiolKvRaeRp0mKuXN/iUWB8vCh1HNZrPo6urC8uXL8b2bbsaOHTssCxPecjn/wgtw5ZVXIh6Po7Ky0vxYAaph/V9bW5vtUV/m7yFSbqJGLBazzYycFBsrBHKZrqurqyBejEhyrhDj38QxG1VeWKmqmsvPlOYVI6lUytYYRmO52nwxjTRNQzKZhESI7faqClsKYESSJb0ywAtM8zpXblT171AKK2Fm8gpsAr3LFRYacSKRCCoqKpBJp5G3xsKBzs5OaGzmsFEDDg+T66ppuXNa62rrTE9awF+BAulMTh+ekcyYv4nrXV1djYjsLh8RkutqtksLMGiUSqX09aoEuTTuuI0ie21CiJ7f7LZq5HEkSwaNmCGKRCIFRjNnsDRIrHfHbNzNRpX7T9naGZ6PjHkPbG9iIBc2YcY2zlrnVpiNajKZxMsvvYzbbr0ViUQid93wPK8Yjh4zBnPnzsU3jvkG5CIHPsCFUbXKR18Ho0pY5YraDAH0VnSjOnYs5t3kwqjym+YWqx+junPnTvz+d7/Hc88+69hK3XPPPXHrbbdi+IgRro0qdGNkXxgYiZqWPURc7NdpTgjmwsAMjzdzIjIbVVj4bcRYGHDMGduNRk5hwKIwMIfBMde0jUtqioXBMWrkNhyukdswYNDILgyYWqwcvcB2iVPFh2OlUXV1tad8pKqqY4HNMcYdZSfZOBpVA8bCoBjmyk+xfGSlQ7F8RNl4q1kjq3wEmzBgk4/WrFmDP972R7z/7rugzHCbfx+JRnH22Wdj9lWzMXDgwLx7VpjzkR1mjcrVqBJmTKuqqiDLMrLZrL7jmZe83FPhmz+MGTcWN9oY1YI+Ispm3xnHpbxAWbfQajaWqrBZgWYIq8Edd/zxGD5ihP67YmgWMwOLuXQ67bow49/P//TqeKKyw6+/Vn5YaeTXf3MYHMVmNiMv9Mx+uHFWZC2O1fKrhVPm1UwaefWbu2KYNfIbjtO3cLhG5t8Wc/yd3EDZOLrEJvy5dV7gv1HYUEuxODOmDzcMHjwYh8+YgcqqKsCivCGEQFUULF26FJ8s/8TR+HvFLh+VExI7XeyQQw/FKaeeinPOPRffPvlkHDB5MhobGwviu1wpaKkakdmCa3MryAnKTmC45Re34Llnn0WWnbVphhCCPYYOxZ/+9CeMGj0K2WwWlZWVjjXszs5ONDc357pOmUDt7e3mx/LQNA21tbWora1FdXW1nrjtatjtbW1oam4uSACJRMIxk1VWVurHgRHDOKmxhp1MJtHc3IxsJps/cGQgnU7ntYKoRlFRWYE+ffogZrH1nlmjtrY2NDc1FZ1VrKpqXvdvTXU1+tocSE4M3Zm8FdTZ2YmWlhYo2SyKdc9yjahGUV1TjT59+thWCHivAq/Z72zeCUl2nuUJ9o5dXV16XBTLxISNs+/cuTP3LoZdpYqRSiZRU1uLGoezbI1IkoS2tjakU2nIbK2rG3g6b2hosIwvI5RStLS0oKOjA/F43PXsaqppGDBwoGPa1jQtp/fOFlDka1RVVWV+PI/6+vrcyR0sPTq1VJubmtBpSJPGfFRXZ9NFTynqGxoK5khYtVQBYNVnq/DHP/4R77/3HiRC9DFbI/F4HN85/3xcetml+rm1drhtqcKQj7LZbNm1VGVZxrBhw3DKKafghBNPwNA994TEznNet24d/vX003j+uef1Ge29FTctVUejyhNBRUWFK6NKWe3vgw8+wA3XXY+tW7faGlRZlnHed76Da669Ri9MI2wczYpkMol3330XL77wgm6UKKXIZrKwKw55wXnYYYdh5qxZqKurQ4Rtq2Y2qvzdn/33M3j9jddzkcQOHAfLPOZvISQ3wCNLMvabtB9OO/10PXJ5gWBcQ/jRhx/h6aefRnt7O8vQOf+ME3BUtt4SrDBWNQ17770Xjjv+eMsMbtbo6aeewptvvAk5EskZCotCA+x7FUUBZd3jkycfgJO+/W1HIxFhszsrKirwzqJFePHFF9He1q5319mRyWQgyRJURcXEfffFid8+CTW1tZZhUba2lBCCd955B88+8yzi8Rg0TXM1UUmSJUyZMgXHHX+85biqkWw2i1defgUfffQhlOyurjkniESQTqfxjW8cgxmHz9Df1QlVVbHqs8/wxONP5I3NOsHTz15774VvHHNMgdEwk81m8e9//RuffvIJVE3VJxY5Icu5M2JP+va3cfDBB+t5wEwmk8Hy5cvx9FNPG+YB5N7Rqlyg2OXPQQcdhGOPO05fpuVkVF977TUsensR0ukUCHZNMqSsuxRArgLH35Pk8tX++x+A8y84P+9d7IxqZ0cHnn32Wfz1rr8WzCmAoXDce5+9cd3112MGO9rLDi9GlSOzTTrKxagSQtDY2IhLL7sUF373u4ixzUiM+m3fvh2PPPx3/P3vfy/aEOrJuDKqxc5T5bVUs0GxgrLDpf985514+qmn8yf7GCCEYPDgwbj3/vswduxYPZMmk0lkLLYxpJRi06ZN+Otdf9X38aSGWZxO9O3bFzfMuxEnnHACqqqq9HfkkxWMdHZ04KZ5N2HZsmWuu5UkSUJ9fT3mXHMNLrgw/8BjY4br6OjAU08+jb/99a/IZgu/0QpCCCRCcPGll+Kiiy9Cv379LL+Xa5RKpXDd3LlY/P5iPY6KIUkSGhoacNnll+PSyy51jFPKJnykUik88fjjuOfuewpmjdohyzI0VcWpp56Km753Mxod1gmrqopMJoM777gDd/3lLr01bvdeRioqKnDqqafi//3wB7YVNE42m8Uffvd7PPrII0hYbGNnBR8nveTSS3DDjTciynYbckJVVXy47ENcNXs2mpubi1ZCYMikBx9yMK6/4QYccMABedetuPOOO/HgAw+gra3NMt+Z4TNpD585E3/921/1CqcZVVWxbNky3DzvJmzatMn1+1NKsf8BB+Cqq6/S39+q14unuQULFuCXv7gFGzZsyL0/Kax8mFuXkiRhyJAh+N3vf4/RY0br1+3GlSml+PTTT/GbX/8fFi1aZJtP4vE4zjr7LJx73nnoZ9ODAxfjylZomoauri4sWLCgLM5TjUQiOPDAA/HTn/8M/fr1AzWtDedl9aeffIq//PnPWLx4sX69t2F1nioM+dLVeaqSYQs4J3jGWLduHd5d9I4+OG2GsPGs4447DmPHjs27JrN1iWaymSxWr1qNpUuX6s8XE0RiywoOOeQQTJk8Re+mIoYt7HhEcL8+/vhjfP755/p7WxUwRrhfgwYPxuEzD9evcSJs/SelFM1NzVi1ahWyNls1muHf2NDYiEmT9kNDQ4Pt+/C4a2pqwoYNG/KuO8HDqKmtxcT9JppvF8DDoWypCO+mLhYOhwJo6NOYa0U7wOOVx5Mb/wlLQ4QQfQZpMaLRKOrq6xFjy7jchgMAzc25XZXcIMsyBg8ZjLHjxunfVgwezhdffIHNmzblXTPD0++BBx6oGwC7Z43wZz799FNs3bpVTw9mJEnCnnvuiUMOPcR1PHHWr1+HNavXIJO2r0jycA888EBMOXBKblmdLKHYsAJ/j6+++govvphbtmf1/maG7TkMh8+cidpa64lwhBBkMhksXrwYq1ettm1Z+4UYtpTs7UhsN7z9Jk3CwIEDCwwqDHlzyJAhGD06V/GxivdywZWq1GWrMJPJ4LVXX8NXX31lG2mU7b172hmn6/823tNME3Aopdi+YzsWLFiA5qYmgNWc+TvZOVVV0advXxw2fRqG7DFE94+jsgOn+TepqoqFC9/WW7CaYTKEnQMrmKdMmYw999wzz3+OxibGGPfiLeav0f+xY8diz2HDHLsy+fPLP16OjvYOEMP2eWY/jY4bhQEDBmDMmDGAi8KYsgkrXV1d+jKOYuFQpgcFRUNDo2XFyQqj0TL7Z3bmd3BLTU0NorHcPsRuHQDs3LnTtVHVNA1VVVXYe++9Ld/VyqlsxvyOHU3YsGGjZVcmh2s2bvw4DBs2LNcr4CIMRVEgSRJa21rx3rvvAjaFHSEE9fX1OOSQQ1FdXe0q//HwW1ta8cknn2Dbl9ss/TZSWVmJb33rW/qsW03TQGHtL/87Hy6ZP38+Nm3aVDT9EkJQV1+HqVOnYu999tGvGeH+r/t8HT74YKnr3hgv8PcvB6LRKPr06QONld3m+ASL43g8huqa4rvB9XZcfx1PaFYRxq+vX7cO7777DpLJpGOCOe744zF+/HhL/3hi4+JkMhl89tlnepdBMbifkixh6tSpOOCAAyy7gcDH4KTcFnVfbtuGD5ct0w2FW2pqazBz1iy9BWeGUorOzk6sW78O27ZtBVgh4QpCsO/EfdG/X3/H3/A4XLZsGRTVeUkJh7AWU2VlJSaMH190zI5DKUUykUBnRydUi41CjPA0Y6ShwdspIEHB36u2tgaVlZUgpNiIbQ6evtpbc12sbuO6srISe++9F2Kx3PgwxyqOOIQQpJJJbNiwAdu3b7d9jtPY2IiJ+01EdU1NbqJablqAuQe1AKppePPN+Y5d7PF4HHvtvRf23ntvEN66LOKzxIYvVq/6DBt5l64NPNwDJk/GlKkHIhaNQSJS3svzcI0QPmb35Vd4+aWXdaPrBKUUI0aOwIwZMwrW2XJ42bP4/cX4fO3nRdP615lsNouWlp2Axex6DqUUqVQKXZ1dRfXpybjJT66NKodaNO/BW6mv/QdfbPkCqkPmGTBgAM4860zz5Twoq6lLkoSdO3di4YKFaNqxQ+8y4d3EVi4SiYBIBH379cO06dMwdOjQAoGNKIoCWZaxZMkSfd9PYuiKtnO8a3f06DHYf9L+gEWG5zQ3N2PlipXIZrMF/li5SCQCSoCGxgbss+++qG+ot/UbLNxEIoHPPlsJsGO0nOKJ35MkCdU1Ndh34kQQm/MmrUimUkglk5BQPJ64I4QgIktoZDNBnb6Hw7WQDKegODnupxu/wdJZTW0t4uzga0mWESniZFkGAdDW3o6MzYb0Zgg76WXYsGEYPGSwnr4kScrz18pJkoQvtnyBrV9sNXubBy+oJk+ejD59+0CSc98jyfbpgMcZAcHHH32EL7dtc/yefv364dBDD0U0khtHlmUZcqQwjrgjLE63frEVq1avtpwYZIRSiqqqKpxwwgkYNHAgJBZPehyxNJCnBxsmUFQVb731FjZtdNlaravDlAMPxIQJE/SKkhEen+vWrcNHH32E9vb2Xm0MgkLTNKRSKaxYsQJNO3b1JPJ8C0Ncfvnll1i3bp3rymhPhZKcs6PoRCXYzNiTTGd0rvpsFX55yy1Ys2ZNwbMwFHQXXnghfvSTH1smZKsZe1999RWefeYZ7NjRBClvgkTuz3i8Qh96oRQgJCfq0D33xLHHHmt5rqPVjL3XXn3NcYKSeUKKRAgom934rRO+lfeskdbWVmz9Yitee+01fPHFFshsVqZVGAAQZTNsFVXFgIEDcNJJJ9kedG5ky5YtuO/e+9DV1cnq9Ltq8YVQSJKMaDSCuro6nH7GGRjhcq1wKpXCF1u24M033sSqVatyBWeR81or4nF9Ruh3vvMdjB4zJi8uzVDWNfnaq6/i9ddfRywa0ytZjnEXjSIai+qzf920iNeuXYtnn30WX335ZV68wVAYGMndo+jbty8uu/xy200JrNiyZQueeeYZbFi/ATLr2ZAkPunO/HQuj0UiMvr06YtvfOMb2HfivuZHCmjZuROPPvYYNho2yyfIFXBmjUhuIi3AWqIXXngBRrNhACsURcHKlSvxzNP/QlrJLZXjs6Y5Zo0IIdA0FftOnIjp06dj2LBhRXVJJBJ49JFHsGnjptxLsqVmMLyzWSNCCCIRGccf/03ss+8+rjaS2blzJx75+yO45+67kUgkCvTm8bf//vvjqjlXY//99y9It34mKlG27HD+/PllMVEJAAb0749zzjsPp552KiorK3OVVJYWNE1Dc3MznnrySTzx+BO9uoLC092o0aMwZ471RCXfRhWGHVZUVcXdf/sb/vnEP9HR0WEZYYQQ9O3bFw8+9CDG29QOrYxqJpNBJpOxDB82u+FQNgW/qqqqIBPAxqjyf9uFY7cbTlVV7qQTO1pbW5HNZpFMJgtqcOZCDmzWYjweB2XLjPjOJMVoa2tDS0uL+TJkNnPWTIRtMSdLEmpqay3jyYpUKoWuri4kk0lk2Qk1sNgRyYhRo9raWst4NKMoCpqbm9HV1ZVXmbILhxCiaxSPx4uun+QoioJt27ZBMe3EVEyjiooK1NXVuY43sPW6fE9sY1jFNCKs+9gpnXEopWhqarJsFdrFHdg60KqqKtuhEo7CtrfkY5luwqHsDNXKyko0NDS40j+RSCCVyh3YAPNWlwyzRpTtJsXXuxf7Fk3T8P577+EPf/gDPlj6gW5EzVRVVeHiSy7GKaeeWlDeCKOaIyLLGDp0KE49/XQccugh+iES2WwWmzdvxhuvv4FXX3kFmzcXHhLRmwjcqPLMsmrVKvzyll9i5cqVUC2eI6x6edY5Z+OWX/5y1zUTZqPKX42ytYtWrUhzS4H7a+U/x2xU3YRjXgpALMYNrGhtbQW1aF2ZCwQOLwzc+s/hx7BZYVVoRyIR1NqsFXWCa2R+b/BlMxZxxzXy8k0KO5TB7BccwuEaeQkHKDzKjVNMIy8GFYZ8ZJUe7DTiBbaXb0qlUkgmkwVhwCHu+Oxyt2FQtjTNXDnlWIVDCHFdqeLwuLLbRtGsEX9/blyLsXPnTjz80EO4/7770NVV2FrlHHDAAZh7/XXYe++983QXRnUXkiShb9++mDRpEoYNH4bKyip0dHZg3efrsOLTT7FzZ27ctTfD09foMaNx9dVXWxpVb6WCCcIG8xe89Ra2bNkMVVNtdwrq268fzjzzTNeZ1gzv/nOC++03DBhmBRcLyyvmd+KFQKnDscJN3HnF/D0IIByrMBCgRmZ6u0ZWlDIcO31goZHTs92huxo1NjZi6kEHYdw464mTnFWrVmHJ4iXo6urdE22CRNM0NDU14b///S8efuhhPHD//XjskUexcMECy1603gy1mVsEdGNMlSfA9evW4X9/9b/4ePnHyGaV3BCIwUfCulTOPOtM/OznP0c0GrVNuMZWUGtLC5p37ix4cd7lzP0wH7/Vp08f9O3b1zYMmFqqTU1Nll1L5pq2sRtW0zQ0NDRg0KBBpl/loygKNmzYkNtlw+Z9JNMYFD9hpH///qivd56gxGltacWGjRsKWjpmjK0hWZbRv39/7LHHHubHHEmlUtixYweam5qhaTm/zAnISiNN01BXV4cBAwa4aqkoioJNmzZhB5ugpg+YGzBrVFlZiWg0ioaGBvTv7/7g7rVr1zqO80iSBKpRfbZrPBZHJBpB//79XR3ozuns7EQmk8ltJdncvGuHKMNrmjUydmM3Njaib9++BXnCTCqVQlNTE3bs2LGrBWd6hmvE47SuthYa6z7dk20xZwelFB0dHfjiiy8sN1ExkqcRpRg4aBAGDhzouETMSFtbG7788svcrNGClLYLcz6qr6/H6NGjXaWB5uZm3H/f/XjwgQeQtNgEhJdhB0yejLnXzcWkSZN0jURL9esFT0+8+3fWEUfk7T3Q7e5fVVXx8EMP49FHHrHtQgPb1eiuv96FAyZP1o2xFdyo7ty5E08/9TSWL/8YhOQmWBh/QghhhRwQi0VzW5oB6NPYiG+fcjIOO+ww2zBgMKrpdBoPPfgQPlu5EgrLJLn3yz3H/aCsmzsXcbkZiaeeeiqOOfYY2++hlOKrr77Co488io8+/BDEYqIIZ9fvKeRIBA0NDTjnnHNw4IEHWvpt5h+PPob//Pe/ua5FhyU7RC98gFg0imnTp+PC715ofsyRVCqF1//zOp5/7nkkkwlQQpHbbZGAEqqbWF4QgU2CUVUVhx16GE4/4/SilQXKuhb/9fTTeP755yHLEWia9XIPfk3TKCIRGfF4HNOnT8eZZ53lquCmlOLBBx/E22+/re/mZRV/MpH0uI1Fc8tijj3+OJx66qmQipxfyuns7EQikcBHH36ERx99JJeGeVh56VsC34pPjsiQWNiHTZuGE044wXZnLU4qlcLKlSvx8EMP5Yy3zVihRCRoVMulh1gururr6nHDvBuLVrZWrFiB++69Dzt2bHcwdbnkILElbqqqYuLE/XD6GacXnXzH81XuHNRb0drSmjOqFHnG1Rg2Yd3XlFIMGTIEl19+OUaOHGmbRzmapuGt+W/htltvxaeffgpYpAFCCCqrKnHllVfixBNPRH1DAzR27q8wql8feDoyjqnyijBh+3T7Mqo8ka5btw6//b/f5NZHmo0uy0waKM4480z85Kc/0ccK7UilUmhvb8eyD5bh5z/7OXbs2AFYJPAcu65xP6fPmI7rrr8ekxwOdobhvNeVK1filp//Qt9FyTqcXfBw+vbtiz//5S+YPMW+kkApxbJly/CD//cDfL52LYiLJSvcn0n774+bv3czpk6daum3kXQ6jatnX4W3334bqqpCY+dS2iGRXGFaVVON2VfNxmWXX277DVZ0dHTgwfsfxD1/uweJZIIZGn53l1E1QiQJlGo4//wLcPWcq9HHYYtCsEIum83i9j/dzrYpjEDJZkHsf8LePzeh57TTT8P3vv+9ohNVOL/5v//D4/94Am18T1LLdLDrGp+Ic9bZZ+MnP/0JImypRzF4Re7DZR/ihz/8AZp2NOlGwNyWzFUUc2HKLP6mTZ+O6264Afux3a/sNEulUti6dSu+/73v4eOPPoKqWqdton9Vzh9JklBVXY1bbvkFTjzpRGiaZqkTpRSrVq3C//36/7BgwVssbRf6zyGGluSQPfbAj370Ixxx5BGueiw62jvwvZtvxuuvv57Lo5pmkcIMsPRdV1+Pyy+/HJdfcbn5CUu2b9+Oe+6+B48+8gjS6XRBfHGdDjroIFx3/XUYN348ZLYkSRjVrw+E5LYpHGXapjAajSKbzaKxsdHfmCpPYAveWoB169ZZdjtKyBVOfRobcdrpp7kq4CjbKOGNN97Ajh1NICTXqsplS6PbBS9YGhoacOhhh+lbH7phyeLFaGpqKshAdhA2c3ffiROx1157ORqjVCqFtWvWYtPGjaAedk+hlGKvCRMwZEjhLlBG+Dt/8cUXWL9+vT4BpjCu8h2hucX+FZUVmLR/bn2tF9LpNNo7OpDOZvIKZCcIcqV3nz6NrlqPuzDq7RwO/3YCtuOBB2qqa3IHahOJdclauV3wuN/Z3JyrPFoYHjskSUK/fn0xevQYPT0VhpXredH/rlEQCmzetIltIGJvUMHer7GxEfvuuw/i8RgkyfrZXdGUC4cQCZl0Bm8vfBvUYcwIAAYPGowDDzwwd+g6Nb99Yczx9L/9q6+wfPnH+gQ+JyilqK2rxelnnoHKKjbpyOG7gdxHUUrR2dGBN15/HRsN23Y60bdvXxx88EEYMTLXgjbHL3/XTz/9FB999DE6O3Obn7ipTAnKB2OaNqIoCqLR3M5skqIoKOYktvie18gjkQi+2LIFi99/H21tbZaZgx89dvisWRgzZgwUtvTG7Dd32WwWiqJg44aNeGv+W6AWMySdmDBhAiYfMBmxWKzAb7OjbExo6ZKl6OjocNVK5UQiERx11FGIxnI1E7Pf/Ft27NiBD5ctK1g+4QRlmxGMnzAeDQ0NjvHF3ccff4z29nZDi8f+OwgrLCRJwqCBgzBy5EgoRXQxu0wmg1QqBcVyFqt12PyZurrccgQ34eW1kqj+Pwd2dXG68V8xpLna+jrEXCxX4fBwmpubkVWyrsPj+aihsRF77ZVbVpYzNs7fxrudt2/fjvXr1qOjo6PAb6MDqzlPnToVNTW58Ww3qKqKbDaLDz5Yhi1bthT4y52qqqiorMBee++FPffcE9ShcmlGYeeVOvlvDCebzWLy5Mk4YP8Dcq0EF+HweF23bh1eeeWVAn+tHKUUE/baC1MOPNB26ZLENllZ8NZbaGpqQoSdYWtXDjg5dGNylWD3Q/jGJMwu8l6XTCYDqbOzE8VcLBZDTU0NampqUMvOkVy6ZCk2bHCYHMMMxDHHHgNVVQv8tHKJRAKLFr2NHTu2691FTvAMVldXh/0P2B9D9hhS4KfZ8XWC6z7/HJtZxnaTUfn7DBgwAFOmTNHf1+w/d1u2bMHHH38MWNR6rZCk3C5Dw0cMx5A99oDGTp4p5pYuXoIUW8+XC8chLGZQo9Eo9tprL8TjcSSTyQI/7VxHRwfS6bS+dKfwu8z/3vUMIQTRWBSpZKrAXyuXyWT0476IVOS7cp+mVyxUtn7S7KeV6+joQL++/fStCr2wc+dOtLW1Ffhp53g+GjBgAPadOBEVFRXuDBJrDafTaaxdswabN29GR0dHgf/cEdYleeDUg7DH0KGQJOv9WK2QJAlNTU1475330Mnix+x/J0v7Q4YMweQpUwxpzx0rV6zEp5/klliY/bVyAHD22WfrLQE3YVFK0d7ejjfeeAOfrfyswE8rV1FRgUMOPkTfMMYcDi+Nli9fjhUrVgBsvgBfwmT2z8mBTawT9E4kSUJFRYVuF7lLJpPeun+5kdu4cSMWLFxg23XKa2DTpk3L7RVaJNPxgnDt2rV46aWXQAtaQPZQSjFmzBgcdNDBrhb8E0KgKAoWLFiIZvb+bsOSZRmHHHoIBg7KncZgBWUbzq9du1Y/McappcDNBX+P8ePGYeDAgUXjjBCC9vZ2rFixAplMxlVrm4cRj8cxaf/9obENyd10YXG/U8lU0RmfZijbyKK+vh5Ecv4uI4S1DggzrHwvWSvHSzz+nm7DAICammp9ww038OdaW1stZ4s6QQhBPB7H8GHD9S5+/V2pwRnhtynF+g3r8dWXX5keKITS3K5P++03CZVF5jIYoVpuj9Z32Ab7dr8jbDOXKVOmoLa21lU+4vc7OzuxbNky7Ny5s+hvCKsoHTrtMEw96CD9WjEo25Vr/br1eOutt8y3LZHl3LnIUw48ELFYrODd+L87Ojrw6iuv6gduq+yAATf5SFD+OB5SzjFvfPDI3x/BX//6V2zburUg4XHqa2rxP7/+FQ4+9FB9Wr0dlBnVzZs34+23384ZZWtvDeQeSKfTGD16DKYcOAV1dXX2LWcDqqri3XfewaZNm9iYbdHAkMlmQTUNhx52GPbdd189I1mRTqexYsUKLF2yBJVVVUXaWLsgRMK+E/fFuHHjEI/HIbOt7OzirqO9Ay+//DI6OjsQ07dRdAiNEBBKUVlZgVlHHqlvysALAzdx19XVhQ8//Ajr169nE2jMcWAqiACkUynEojEcefRR2GOPPSx+kw/lm4p8tgqLFi3Su9mcylJKc10vhEgYP34cpk2fxq47hwW2e8/bC9/G9h07HGJvlz+KqkLJZhGJRHD6GWegpqbGViMjxny0c+dOzH9zPr74YgskWdaNKQ+FsAO4+Yzk3LaYFDU1tTjo4IMwfPhwg8/5GHcT+mT5J3j33XeRyWb0uCj8RoIU33SFVWIGDhyEY487xtFQRCIR7Gzeibfemo/W1tbcBviFnueRyWahKgoGDR6MadOmobGx0ZVGDQ0NeO/d97BkyRLWa+Qc34qiQFFVSETC6DGjMX369KLGmLK9h1//7+u4/U9/wpo1a/TrZqqrq/GDH/4Qxx1/HEubue5AuMhHlO34Vi6HlH+dkNhEJcdDytva2mixAsFYGGzcuBG/+tWvMP+NN/WxASMSWzpy7LHH4sab5qGhoUGfnOKU2Cjr1uF/uqW9vR3xeFwfB+HTm53gXa3FnjPS1dUFRVH0rfCcDB5lrdVUKlWw45MTBAQg+ZnYKRxVVfX1e3bbKFohEYJ4RUVeK8ttgcC74Ky0t6OtrQ0SIaisqtLjrlg4fJwikUi4GgoA00hVVcTjcVRUVDjGnRHebVPsnThcW8K6WXmcuAmHa6RpGhKJBLKGrR7NKGxLQI4syyDIdaPzrnErjEY1m80i0ZWbpe2Eea12NBot2iUeiURQwdKR22EUfmSgLMv61otu4q6hoQGZTAZdXV2uwuEagcVbXV0dUKTXCEyjpqYm/PG2P+Lf//qXPtRhhJdTs2bNwv/74Q/y1iq7yUfCqPZeXBnV9vZ2WixRGwuDRx99FHfddRe2fWHfSq2trcX//Op/MPWggxBh28bJbPq5XWFMWbek3SQBKwghaGtry8tkhI0bOiVq2bSo3g3cqBonF/AWlDnuKOsKo5R6MqpghQHfPJzjZBz4NXNvQjFUi31bi2kE097EbuFbzPG4c6NRhO176yWcTrb0ixi6zu00MtLA1hy6JWXYTpN/k5NGHLNGTs/CYjtNsHCKxZ3RqPJ0WAzzNoCEED3u7IiwNZrG9F4MrhEMlVu3GsEQZ8XCMmoEFhY3eE7h8L2WX3jhBfzlzj/j888/B2zCq6muxo9/+lNMmz4NcXbQPVzkIyqMaq/FjVGVVLZolSc4JzZv2owFb72F7V9aH0Kuj6VOn47xhnVcYIW4ZjqA3AgvaL06o0EFS7AaW5RtB/9es19unBFzAc7x+y3ccT+509hMWF5BMTrzb704s18aG5e1CqcUYfLfg+nEd9eyc+bfe3HcD5Vty2e8ZuX8pgf+eyeN7JyfMDluwzH/3q0jrDXmlI84PBwv32MsG+zykRVmf9w4HpZm6qa1gjAjP3XqVEzcbyIikdypUmYIIejs6sKrr76Cnc078969WFkn6L1QAFqRVXv6mKpTTZvXsB//xz/wl7/8BV9s+cIyoYHNaPvt736LyVOmWG5JaK7FaZqG7du3I5VMobKy0rFbC7zrBblJAY2NjY41dtnUzUgpRXNzMzKZDKqqqkBtF6wbrrPMWBGPo9pmkXckEoHKxljT6TSadjTlDgtHbgNxR0zliFVLlSPLMqhGoVEt94pk16tWV1d7ysRWLVWOWSMjXnsTwLroAdO3svc3a8SvR+QIqqoNvQn8ex1IJBK73tn0fERmGpmzA83NHvdCnkYGDUAAWbLJRwSorrLRyOa7fGlEgXgF08jwXvyeHbpGDEJyQxH19fXo06ePZT7jLVWwnpzmpmbwSrpd+cA14kauqroKjY259cvGfGTG2OOjaRpb/533SB66RiQ3rEKRqyD06dNHb10XaMTKOp4mn3v2Wfz5zj/rEw6t3qu6uhr/7wc/wBFHHIFYPJZX3tlpJFqqvReu79hxYzFvnnVLNW+iEs/w5gxUU1ODr776Cv/7q//Ff157Tb9vTGQSG0s9+htH4wc//CFqamog2azDklhNWGH7u/7kRz9GZ2cnZJe1YgJg7332waWXXYrBgwfr180QVivl41Zffvkl7rzjDqz6bFXu3WiuiC3MKruu8Pf8xS23YJ999gG1GfOVJAmpVArvvfse7rzjTihKbixGlmUL/3dBAH0CDs1tj6rHa+5PYpqgQ0EAaDT3J39/HqdusStUONwvc0FSPJzCezy9SGC7BLBvJeDLZXaFo9HcxiGUHWqeuwloAGz2MGDkdvWhNLfDE2XxlCvgAYpcK4WYvoka0r1bjHEnIfduxr+b447wWLGJu9x7mq960QgAW6dLAUQkGYSf02qId9s6pCnPy4Tk4j8SwcyZMzH7qtmQ+V7BBoxGdfny5bj37nuwcuVKxy05NU0DWB7SNA17DhuGa669BqNHjwaYFprFTHbzMMr3bv4ePli6FJFotKC8Ao87dp1IuU1B6uvrcfIpp+CEE0/Q07H5t8Yu+q1bt+K3v/0tXnrxJShOY6tHHIF5N82z3AvcKhwqjGqvhec510YVFoaVUora2lo89+yzuPOOO7GR7RBkRUVFBX7z299g5qxZrjY9UBQF9957L+67517LjGQFYedmnnnWWZh73VzLiQRGZEML/NVXXsFdd92FLzZvAVgGdwqRVxRGjRqFRx571HE3IE3T0NHRgfvvuw9/f/gRENOEIyfyC2GS2/sVueUNYOsvOZQWFiA9BqqbD2vIrn2VdYNjSiPGOCswTkXSE9vHK/c884Ybl5wVd6fH7qD4tzmRi3e954Wv2dX/nYt3t+lRIgQa21Fp7733xu/+8HsMHDgQMBlfblQppdi6dSvu+vNf8Nhjjxl8KoQAgGFCYjQaxfe+/z0cc+yx+jamBb0XBqPKf/fMM8/gxutv0A2bFcawwN53xowZuPn730P//v0LyjoYjCplKxKeeeYZ/OXOP2Pjxo2AKX1yKioq8JOf/RQzZ85ELJbfWoWFYaXCqPZauLZORrWgKcmF5wmOEIJt27Zh/vy3bA+YlSQJEiGYNm0aJk3a37Lb1wxlG86/8PwLepcPd8UYOXIkDj/88FwXbpHnud+apmHZsmXYsX0HNEqhMoPqFCb/hmOPOw6VlZW2tW+wOGhtbcWHH34IYNdMZn9OzTlooFTb9W+aH089zoHm3tnOmZ8vueNxZAyT/9v8bDk59p36N5v/bX7e2WmGSsyOHTvw2cqVUNmuUVZjrIQQDBo0CFMOnKKfDmSb/k2VpGw2iyWLl+QdyKGytdNWZQi/dvTRR2MyO6DDrkfMnL81TcOatWvw7ju5Nbi85W3VU0FYS/2QQw7BhL32gmQzA533UL32yqsFXegc3mCwCkdQflimRm5YeQJevHgxPv30U92omBOXpmmIxeM44cQT0K9f8aOpNLbpwAvPv4Avt23Tn+eZ0YmqqipMOXAKJk+Z7Op5nqk+X/s51q5Zi7Rps2wnP1S2POOb3/omwDKQHZlMBps2bcJqtrZNY5Mi3DhO7t+7/CQk54yYf9uz3K53tnPm7zBj9M98zS3m8Hb92/y+PceVAvvv5v8uDNfKcTRNQ1dnJz5Y8oH+e81mEqAkSRg5ahQm7DVBv2b21/yd3Nh88MEH+kYKHJVNMDP/BixPV1VV4dzvnKf/2wnuh6Zp+OrLr/D2woXYsWMHiKH1aJe3Bw0ahMMOOwyDBw+2fBdeJi5atAgrVqxANpu1fB/+rVZxJygvrFOSIVE3NzXj7QUL9Y3hzfDEeOihh2LS/vsjWmSiEdhvmpua8Pzzz0LTFEgSIMvE0UUiEiIRCSNGDMPhhx+OyspKy/ex48MPl2Hr1q2QpJw/Zv/znaRPmJo6dSrGjBnjGJamaUgmk/joo4+gZLKIRmULP9263GxFe2d+vie53f3u5vCMrpjmvdkFF++pdAorVq7QD5nmFWKzcSCEYPjw4dh334mIRGKQpNy+qMXCj0YjaG5uxscffoTOzs683iCVTXoyww300Ucfjf0PmARKVcRikQK/cy4/LiilWLNmDZYsXgwwg8zDkU0tSd66nD59GsaNG2f5LmDlWTqdxqsvv4KOjg7bskJjy4bMcScoL+Rf/vKXP4vFYjC7aDSKaDSKtxe+jeeeew4tLS0FiYqwLp5oNIqLLrkY48aNA1ji4TN5zY77+8D99+P/t3elMXIUV/irnpnd8SCvtN5YMTKOZUuIczlibcAEC0uQy4AhivOLS8oFSUj+QUIE5jcgQgA7f9bYIVbAEC5x2P4Dy8YYHGGHKEjexGt2sUxsvLY8M97xztXTnR9d1VtTXddM786ulf6k0miq3qtXXa+qX3f1q1d7/jYcPi2yN0pd6urqwvVr1mD9bbfBp2du5nK5iAw+dXd3I386jx0v7sDBgwfRoO7uwRJZVEaQpt9wf/STH+PCCy9EJpNBNpuN1M9kFItFbNu6FSdOfAnfDyZPtN6ZSrNZ92yn2Wr7tM7kyaTzczmZrt1v69qDMRzM80svvQwXX3wxMpkg8AT77litVlGr1UIfiuKZMxg5eBCFQnDQxvQ8UMv3PA/VWhVr167FkiVLmuZWhkYKq1QqoZwaPdTBp0ZvaCg4Fi4656L94lHfB0IcDAwMYPHixaGcdDrdJKNer6NWq6E7m0WhWMTh0cOYmpqCLxhN9v/48eO47pvXYcWKFdr7X5oeHTg2Noad7+xsqivB/Aazgb29vVi1ahXOP//8prGSy+X056lOTEzgySefxBuvvR4uk4AbRCnqqXft6tV44MEHsGzZMvomqD+41/d9vPH66/jyyxPo6sqEIcfYdxv+aTVA4Nm5ILcAV155JS666KKwRPQKlGHixAns3buXHicXLGHV60G8XDkIQI34t7/7ndANX/eEOTExgd27dqFSqYTfX3zfR43G5bVFJhPcsNSQq6teD05L0aizCY7jtLw1BlodIeg3CaYDh9u1DfTBrF6vK+TIEMTUVS3jBYjKb09HwY2xVcyejpr7PaojszxZcPfwoTmdwVVfvxpXCUcFuq4biUR16tQpfHLgH/jvsWNIpdh3SBK2QdQRIU5wFGE2i5u+dROWSJZZfd8Pg6+ImJycxK5duzB19ixdLg7yp3U0XVfQ7cG8XLRoEVavXo2lF1wAn/PoZ1GumI5Y2dGjR/H4Y49h30f7pPpjc379+vV45NGNQZxrxZut7wfxlYeHh3H/L34pFieYx2DBH1YI56kyXRsPKd+9ezeefeYZHPrPIYAzpjwIIXjodw/he+vWhTeATCajNarMsIn1VSqV0JuXn6g8iPBtxsaogradyXNp+LeUZJuACCbPZFTBfV/hUSgUwidTG/DRcFpBqVSCT5eybGB68FHBRkcibHXEoxUdMdjoSIZER2YdyR5WZDrijZEMOh3JZDCodMTPax4mHYn3EQaZjlj9L+14Cdu3b8epkyelcx1U7uBzWzAwMKC8Tp8eUr5nz57EqJ5jsDGqylGcz+fx4d4PcXj0sHTgsglwzbXXYNWqVchms3BoBBM2YFWJ8YvfO9g3DccJvmmKZSkasUWszyaJ8lg93TRwvSq1Ik/kZcmnIRjF/JlOAMKlObFsJpNJRzOVbHU0EynRkT6JY50lUCPBPP7ZPUDkt0li3WJqNBqhHJbalaWb1x797snTOI6DG9begJUrV0buhQwOXaZ+9ZVXpMvEIlSGOcG5jcibKvv73rvv4uk/PI2RkRGA82YVsXz5ciz72rJgUtClFkJIEMghSh6CILoq1Wg00PC8pr2ZpoGZ0ewdZWB1EM7Nv+E2wuaxfLAmce1m+WwyMyLVpXl0Ow0Dv482lKPg9wE41OlECwm/67rBVgjad8p+Y0EX6JYBLjtaqQQNtwGf3gx4Hen4m3QkaTvNjvQ7/1ZC6L5LHW+ahu5TQiG7Vq+HBTZ9x27kXLa8Yh4+0KCHYYMfi1DzNulI0XYZP/MbAK8jVd/RTNk8YnPFUbxBSnXE9V14reGdoVlHYtv5vhHzpPNIqJuHqCMefL+L48XldQQSjnUfQT989tkYjh87Fnlj5pHNZvH8n5/HVVdfLW2DT99Uh4eH8ev7fyUWJ5jHsHlTjRhVAMifzmPTpmfxwl9eMAZXaBcE6r34viG2YlwQNpclQmxkx227ij8OL+aYPw4v4vJTXlkRDxV/LNlx+S3aPtfjNQ7itt0E3bVpYdHv7cChAWM2/HADHn7kEeRyuchDSWJUz13YGNUmbfssSMI/P8H+j/fDtTjOibQTtJsEiTjy5BAJz0wm4oAo5LO2RXg43lht1/AbZVMakc+aXyM75Bd5LPmNsimNyGfNr5FNTLwGfqNsSiPyWfNrZNu2ve3xyvglvCG/SD+TKW7bdUnXr6bUpmwT2ArB7l27MT4+LhYn+D9A0ygh9Ci1fR/tw+joaLj8owMzxC0l30PDkHQ0Ht2yokwSHpt6reqX0ItJReNpymxoVPm2NLoyE42uXTY0qnxbGl2ZiUbXLhsaVb4tja7MRKPKF2lUdKr8Vmgic8ByPujKeJpInbZJUl+rKVKnIdnAcRyUSiX89eWXUa1W1Xz6W2uCeYzgYVH+whkaVWYcP/3Xpziwfz8arht8J5V8yJ/txMLAiPlhOaJ5tuWmuuMmXf26MhsaXRlPI+bZlLFyFY2uzIZGV8bTiHk2ZaxcRaMrs6HRlfE0Yp5NGStX0ejKbGh0ZTblRDOXCJnbuTZfE8POd3bi8/HxpjwGQmOYy75lJ5j/WJDLISvZhgYIjkrFYhGDg4PY/vyfw1MZkoepBAkSJDAj4mjl+cG31Uc3ht7EDJVKBUeOHMG9P/0ZvvjiCxCdg1yCeQOm2xtvvBH3/vy+iDd4xFFpfHwcr736Gv49chCZTBf1kvPh1qc94lTgBwURPEttwXst6sDLaudJzxe8FlXg5Rg9SxWwcfTi5Tgar0UdeK9FFRIdyZHoKNERQ1wdEULg099GvY7eRb14eOPGyLnK5XIZ+XweTzz+BN568004muPyEswvdHd34+577sEdd96BhQsXgtBtWJAZVRVKpZLV5HFoVJFUKtX2pvVKpSJmR8Ampe/7xk3rMriui1KpJGZHQKgTVqPR0G5a16FQKIhZUqTpAc3d3d3aTesqJDpKdMSQ6Gj+66hcLuPs2bM4cOAAfvvgbzA5OSmSJJhnYOO4v78f9953Hwa+MRDmg5tHTUa1VqtFwo4BUIYIk4E9IeZyObHIiGq1anUzYCCEoKenR8w2wqWRYGzAOjKbzbZ1MygWi2KWEqlUKowR2ioSHSU6Ykh0NL901NPTE7nmSqWCcrmMcrmMP23bhh07XkK1UoEniTSXYG7AjCUNgA1CCPr6+nDX3Xfj9u/fHtE7ISQIT8kb1dHRUQwNDeHUyZNIOSnQLdKotRSDNai8KViCJVzXDQw6bZGK28d0YYYG3BYJVLwA0PA81F3zchKPNI2AY4Qgu1qtcv+a2y6DQxx0aZbiVPxhnFzNtfO8Uh1peEH53QbVkQwK/kwmA8J0JCNg4Pg9GvuXKzLyZjQ60vFXq1Vl28F4Mc3vOE50udTETzgdiVDwMh0FDj9iKQeBP5xHkrZHQAm6ZPPI0G+e56Feq6uKAQm/9TxioNcmziNapGybVEcWUOpIAXEeEdYu2q+O4+DOu+7E0qVLm/j41YRCoYA/bt6MofeGwocHz/NUl5agQwjvjTRaXl9fH2659Rb8YMMGLF68WCQHaBhOks/nQ7v6wZ492LxpE8bHxgFC4HmN6UnZKbDBKOZz8HUTik5CWRGDlj8OOtD2cLrLiHy9bDB+Ba9JdtJ2BZGh7XFlx+Wft203wdA26MbEHIGAhC8j8IO35i3PbUH/FVfA5wL3i7GJC/kCXnzxBbz91tuYOHkSpclJNFo4fCHBzIMQgq6uDBYu7MHy5ctx6/pbse7mm9Hb2yuShigUCs1Gde8HH2DTs5uCTcuEwKOnx3QUdAzp5kk4zGREcfnjIK7sWeaPw4s55o/Diznmj8OLDvDLshlMvFAUMWj5TTDUH6vuWQYhBF7DQ1cmg8Etg7js8su1RtWnR1keOnQI7w+9j5GREZw+fRout6LGlqVJC57CRHJOrAnMmLciB3QVohV4dO8v6xNbWSm61dMWPndmrq0MAFiwIIclS76K/v5+XL9mDVauXGnsy4hRDd5UN2NsbAzEcebGqMJyohsIDMV6gjiIKzsmvylkG4v1KkVM2XH5k7bLYZIdi9/Ai9luuwGx+nUOQNg1I9hSk06nMbhlEJf392uNKhDc/NmNv1aroVgsosYte585cwZAYCgJ53GqQzqdjnz7M2Fqaio04GnJyUAqtPpdvlqthsv6zMHMxuidd955RuPGo9FohN/+U/S4UqMc+n2Unbdri9Cogir07/v2YevWbTjy+edNVl32rcUEXuG2TyJssLSCTsnxhehStrJa7TuZHJMMtCEHHey7TsmR9R3L16HVvpPJMclAG3LQwb7rlBxZ37F8HVrtO5kckwy0IQeSviOcwXMcB79/6ilccukl8A1GFVw/yPqV94AW5aiQbuP4QNED2tYQtepBLnqp2xrwVj3IRS912+thOtLpREShUACZnJz02RPC0aNHsf/j/SgWC02DSzxY2ATP8yKOBQ53cLcKmTYOfy6Xy03/bSapY3348zRk4cZsrkl2+LMOrutG9uTZyEl0lOiIIdHR3Ooo5aRo+EUfjkOwbt3N6PtKXxONyqiK4Nsqbiti7RT7k8dMGFVYGqK4RhWWb6xxjSqoHM8QejKbzbY87sI3VdOFzMRFwKLDbAcaD3GgMTiazdQzNdBg8XQ1EwMNFn2X6CjREUOio0RHDImOOq8jB1Roqx9/2wGT08qTYBx0Qg67ptlGoqP2kegoHjohJ9FRPHRCTqIjO/wPGJr5We/QXqcAAAAASUVORK5CYII=;" vertex="1" parent="1">
          <mxGeometry x="622.07" y="182.5" width="95.85" height="75" as="geometry" />
        </mxCell>
        <mxCell id="_JRS8aCD4_NyxfwCqgJr-49" value="&lt;font style=&quot;font-size: 36px;&quot;&gt;Web Application&lt;/font&gt;" style="text;html=1;align=center;verticalAlign=middle;resizable=0;points=[];autosize=1;strokeColor=none;fillColor=none;" vertex="1" parent="1">
          <mxGeometry x="170" y="10" width="280" height="60" as="geometry" />
        </mxCell>
        <mxCell id="_JRS8aCD4_NyxfwCqgJr-51" value="" style="shape=image;verticalLabelPosition=bottom;labelBackgroundColor=default;verticalAlign=top;aspect=fixed;imageAspect=0;image=data:image/png,iVBORw0KGgoAAAANSUhEUgAAAIMAAACrCAYAAABFYi89AAAAAXNSR0IArs4c6QAAAARnQU1BAACxjwv8YQUAAAAJcEhZcwAADsMAAA7DAcdvqGQAACxpSURBVHhe7Z1nbFxXer+f6ZUz7L1T7KTFol4oiaJsSS6yZQux5di7cYIECLIp2ORDsP4QIE4C5EsWCPJhYWdlrXbtJAt7bUleW5JVKFKyem/snRQ7h8Ph9Jn/h733/GcoyrYsShSpeYALW8N7p9zzu+e85z3veV+F0+kMEiECoHiaxOD3+/F6vfh8PgACgQCBQAAAhUIBgFKpRK1Wo1arUalUKJXKsPdYzCwqMQSDQYLBIB6PRxxerxe/34/P58PtduNyuXC5XEIYXq+XYDCIWq1GoVCg0WjQ6/UYDAb0ej1arRaVSoVGo0Gn06HT6dBoNBAioMXCghZDMPiHr+73+8Oe+uHhYUZGRhgeHmZ0dBSHw8HU1BROpxO3243X68XlcuHxePD5fAQCARQKBWq1Go1Gg8FgwGg0EhUVhclkwmQyER8fT2JiIklJSURHR4tzVSoVKpUKFoE4FrwYPB4PQ0NDdHd309XVxd27d4UQ+vv76evr4+7du6LXkK8L/XcoCoXiniM5OZn09HRSU1NJSEggLi6OlJQUsrKyyMzMJCEhAa1WGxHDfOB2uxkZGaGpqYnOzk56e3vp6emhq6uLgYEBPB5P2JDgdrtnvsUDodPp0Ov16PV6dDodWq2W1NRUMjMzyczMJD09naysLIqKioiLi0On0818iwXBghFDMBhkcnKS7u5uOjs7aWtr4+bNm7S1tTExMYHNZmNycpKpqamZl4ZhMpmIjo4WjatUKgkEAvh8PlwuF3a7nampKTwez8xLw4iKisJisWCxWIiJiSE3N5eysjJycnLIzs4mKysLi8WyoHqLJ14MPp+PqakpBgYGaG5u5vz589y4cYPe3l6GhoYYGxvD7/eHXaPX67FYLFitVkwmE0ajURiC0dHRpKamYjQaMZvNqFQq/H4/Ho8Hh8PB+Pg4IyMjTE9P4/f7cbvdOJ1OpqenmZycZHJykunp6bDPU6vVxMTEkJiYSFpaGqWlpaxatYqCggJSUlIwmUyo1eqwa55EnkgxyGO52+1mbGyMmzdv8tVXX/HNN9/Q1tbG5ORk2PlKpRKtViu68JSUFMrLyykvLycvL4/09HRiY2PF7ECeDdwPr9eLx+PB5XIxOjpKb28vXV1d3Llzh2vXrtHZ2Sn+7vF47rE9rFYreXl5rF69mq1bt1JSUkJcXBxarRaeYEPziRWDx+PhzJkzHDp0iOPHj9Pa2orb7cbn891z85OSklixYgWbNm2ioqKC+Ph4LBYLer0elUqFVqtFqVQKg/D7IBuYgUBA9Bwul4vJyUmGh4e5cuUKBw4c4MKFC/cMTfLMRKfTkZmZybPPPstLL73EihUrxPd4EplXMcg3G+npVigUuN1u+vv7+fjjjzl16hQtLS2Mjo7e0zVbLBaqq6upq6sjPz+f9PR0EhMTiY6OFkOCfNPn4ubPFIbNZqO/v5/u7m6am5upr6/n0qVL2O32sOt0Oh2JiYkUFRWxbt06du/eTWJiIlqtdtbfP5/MmxhCp3cKhYJAIMDQ0BCXL1/mq6++4uTJk/T09OB0OsU1Wq2WvLw8ysrKKCsro7i4mIqKChISEtDpdI/9ZgaDQaanpxkcHOTGjRtcv36dmzdvcvv2bdrb28OMUKPRSGZmJhs3bmTr1q1UVlYSHx8v3id0KjtfzJsYAoGA6O59Ph9tbW188803fPXVVxw8eFCcp1arMZlMxMXFkZOTw7p166itrWXp0qViDJbf536uY/nvoZ/5XSgUiu98Wme6sqemprh+/Tr19fU0NjbS0dHB2NgYDodDuMABduzYwQsvvMCaNWvIzMwM68HmUxCPVQyhDRHa7XZ3d/PLX/6S/fv3097eDtKN0Wg0xMbGUlRURE1NDdu3byc3N5eoqChx/cwGkz9D7nVkAciu51Cv40xhyAKQvYsajUY4k2baHPJ/Q4Umn2O322ltbeX3v/89DQ0NNDU1MTo6itfrFZ9VUlLCa6+9xo9+9CPi4+PD3v9+on7UPHYxyK5fhULB9PQ0LS0tvPfee5w/f56xsTHxBJlMJjHO1tbWsmLFCoxGI2q1GqVSGdaQM8UgG3sOhwOHw4HdbmdsbIy+vj4GBwcZHR3FbrfjdDpFV67VaoULOjY2lri4OBITE0lPTxduaaPRKGYk8mfKopIbUCENeV6vF6fTydmzZzl27BgnTpzg2rVr4nuq1WrS0tKoqanhr/7qr8jLy8NoNIr3mA8emxhChQAwMjLC2bNn2bNnD+fOnWNiYgK/349GoyE+Pp5Vq1ZRW1vLsmXLyM7Oxmq1wrfcKLfbzeTkJGNjYwwODtLa2irG7vHxcSEQeTooL2CFGnDyglToNNVgMBAVFUVBQQHFxcUsWbKEpKQk4uLiMJvNYcKYKUqAiYkJOjs7OXv2LEePHqWxsRG73Y7f70er1RIfH8+KFSv40z/9U6qqqsTvlL/T/X7vo+CxikG+QYODg5w+fZpPP/2Ur776CqfTSTAYxGw2k5mZycqVK9m2bRvl5eUkJSWh0+nu6TplcU1NTTE+Pk5vby+3bt3i8uXLTExMMDg4SF9fH0NDQ7hcrrBrHxSNRiPWJ+SFqurqaoqKikhLSyM2NpaoqCjR4xHyexUKBS6Xi8HBQa5du8bnn3/OpUuX6OnpweFwoFQqiYqKYseOHbz44ossX75cGJaLWgyBQIDx8XEaGhr49NNP+frrr5mYmADJvVtQUMD69evZtm0blZWVmM1mIaBQMXi9XqanpxkfH6epqYk7d+5w584dbty4wYULF8R5oahUKgwGg3ji5XgFQhouGAzi8/nE2obT6bzHuymzfPlySktLKS4upqioiMLCQqKjozEajWg0GvF75QYNBoPY7XYuXbrEkSNHqK+vp7m5WUxFExMTee6559ixYwerVq3CarWGTY8fB49NDH6/n+npaRobG9m3bx8NDQ2MjIyANF5XVVWxfft2tm7dSllZ2czLQWo0n8/HyMgILS0tXL16lYaGBs6dO8fQ0FDYubIRKNsYZrOZ9PR0UlJSiImJETaASqUSAvD7/cIlLa94Tk1NEZDWLkIDY2SSk5NZvnw569evp6KigiVLlhAXFyfiI0J7Cpnm5mYOHjzI/v37uXLlirBbUlNT2bRpE7t372blypXCafa4eGxisNvt3Lx5k1/84hecPHmSu3fviienqqqKt99+m7q6OtLS0tBoNGH2RVAy0JxOJ01NTZw9e5aGhgaOHj2K2+3G4/GIsV8mLy+P0tJS8vPzSU5OJjo6GqvVitVqFU+v0WhEKS1Uhc40HA4Hk5OT2Gw2JiYmGBgYoKWlhZs3b4rZjowyxBVeV1fH+vXrWblyJYWFhej1evEbQg1Nn89HZ2cnR44c4aOPPuLy5csEAgFUKhXp6els3LiRd955h+LiYqKiosI+71HyWMQwOTnJ7du3+eSTT9i/f79YZjabzRQXF/P222+zYcMGMjIywtYN5CfL7XYzNDTE1atXOX78OOfPn6ezs1P0LEi9S0pKCitWrCArK4uMjAwRgxAfHy+minIom0JyGctdeEAKgZP/PzQSamRkhP7+fnp7e0XcxKlTpxgeHg7rKeLj48nJyWH58uVs2rSJyspKEesQ2jMoFAqcTifd3d3U19fzq1/9ijt37uBwONDpdKSnp/PCCy+wa9cuCgsLMZvN4tpHierdd9/9p5kvziXT09O0trZy9OhRPv/8c3p6evB4PFgsFsrLy/mjP/ojtmzZQnp6unAihXavdrudlpYWjh07xv79+zl9+jQdHR1hi1VlZWXU1NRQW1tLXV0d69ato7y8nJycHJKTk4XlL4eyhdoN8hE6i5DD3sxms1imTk5OJjs7myVLlpCRkSFmFMFgkNHRUfFbx8fHGRwc5O7du3i9XkwmEwaDQcw6FNLUU6PRYDabiYuLw2AwMDo6KlZEHQ4HY2NjWCwW4uLisFqtj2XV85GJQX7C+vv7OXHiBJ9//jlXr17F7/ejVCopLCzk5Zdf5tVXXyUlJUUIAanrDQaD2Gw2bty4weHDhzl48CDffPONeBrlJ6i4uJgdO3bw8ssvU1NTQ35+PqmpqURHR2MwGL5zhfL7oJFC4SwWC7GxsSQnJ1NSUkJOTg4mkwmPx4NSqRSBNOPj4/T09DA8PIxCoRDC0uv1EGI/qNVqoqKiyMzMxOl0MjAwIH7fyMgILpeLmJgYUlJSMJvNYQ/Jo+CRisHpdHLhwgU+++wzjh07Jv4WGxvLtm3b2L17N9nZ2aKrDmVqaopLly5x4MABPv/8c65fvy66ZJ1OR3Z2Njt37uQnP/kJmzZtIicnRyxTz5yGziVKpRK9Xo/VaiU1NZWysjIqKytRKpUMDQ3hcDjEECNHYHm9XiwWC4mJiWKmQYgtZLFYSEhI4O7du7S3t4v1mJ6eHjQaDSkpKaSnp6PRaBamGPx+P62trXz44YccO3YsbMHpRz/6Ebt376agoACF5H4NSnNypVKJ1+uloaGBDz/8kEOHDgljU6ampoaf/vSnvPzyy2RmZmI2m8X4/ziRp6vx8fEUFBRQVFTE4OAgXV1d4pzJyUk6OjoYHR0lJiaGrKwsMWUMHTZkz6fb7ebKlSvievm3L126lOjo6Ecq9EciBq/Xy9jYGJ9++ilHjx6lt7eXYDCIRqNh165dvPrqq5SXlwv3a2ivMDExwalTp/iv//ovzp07JyKZFAoFRUVFvPHGG7z55pusWrWK2NjYsLH0cYtB/t4qlQqz2SziImNiYpiYmGBsbIxAIIDL5WJoaIienh4SExOJj48XRmXokGE2mzGZTAQCAZqamgiGrKkolUqKiorQSsvzj4I5F0MwGGRqaorbt2+zZ88empqacLlcmEwmysrKeOutt1i2bBkxMTH3jIETExOcO3eODz74gFOnTjExMUEwGMRkMlFeXs6rr77Kjh07qKioIDo6Wlwb+pTNBwppZmIwGEhKSiI5ORmDwYDNZsNut+PxeJienhYh/LLXUg6clb+3VlofUavVdHd3i2udTicOh4Pi4mLi4+Mf2XL9nIgh9Mn2+Xx0dXXxv//7vxw+fJjJyUlUKhVpaWm8/PLL1NXVkZSUhFqtFkMDgMfj4eLFi3z00Uf87ne/E44Yedbx2muvsWPHDnJzc8MWdOZTCDM/PxgMotPpiI+PF9PksbExpqamcLvduN1umpubhR0g34dQUWu1WvR6PW63m46ODux2O263G7vdjlqtFp7O0OFirn77nIiBkLV9h8NBQ0MDP/vZz0SIusViobKykrfeeov8/Hx0Ol2YgBQKBe3t7fzmN79h79694nWdTkdlZSWvv/46u3btIjk5WYhINr6eJGRBqNVqrFYrRUVFqFQqhoeHGR4eFq7tq1evYrFYyM/PJy4uDkLc7RqNBpPJhE6n486dOwwPD+OWwv4vXrzI2rVryczMFMPMXD4IcyYGuXGvXbsm3Kwy1dXVvPHGG6xbtw6j0Rj25eUp2T//8z/zP//zP6JHAFi7di2vv/4627ZtIyEhIewJkh1HTyoKaUqZlpaGXq9nYmKC7u5u8fdbt27hdDqpra0VBmWo/RAbG4vH46Gnp4eBgQFxXWxsLBkZGaSkpIjPmav7MGdiUEjxCV9++SW//vWvxQJMdnY2GzduZPPmzWRkZIhz5cb0er3s27ePgwcP0tvbC5JAqqureeWVV9iwYQPp6emiOw09nkTkBpV/n16vx2w2o1QqGR4eFmsosujNZjMlJSXiWvneyP6RiYkJhoaGsNlsAAwNDYkNO7LfYq7uxZz0s3LjtLW1cf36dfr7+8XfCgoKqK6uJjs7W9wg+ZienubWrVt89tln4qnRarWkp6dTW1vL6tWrycjIWDBCYBY7Qq1Wk5mZybp163juuedIS0sTDrb29nZ+97vfiV4i9DqVSsWSJUuorq5myZIl4v37+vq4fv06HR0dc34v5kQMwWAQv99PY2OjGB4UCgUxMTGUlJRQVFQkZg+yIHw+H4ODg3z55ZdcvXoVm82GQqEgOjqalStXsnHjRpYsWYLRaAyzL550Zmsgo9FIQUEBW7ZsYfXq1VitVhQKBePj45w7d45Dhw4xPDwctjgHEBMTQ1FREcXFxcTExIjXr169ypkzZ/D7/XN6b+ZMDFNTU9TX13P16lWQ5t5Lly6lsrKS5OTkmZfgcDi4ffs2n332mdh3YDAYyM7O5vnnn6eqqoro6OiZly04lEolSqUSq9XKM888wyuvvEJOTo7o4u12O5999hktLS33bAcASEtLo7q6mvLycuFfuHz5MidPnrxnv8bDMidi8Pl8XLlyRSzYIIlBDvyQI3dCaW9v58SJE8JdC5CRkUFdXR3PPvssJpMJQuyLxYDZbKauro6amhpSU1NBsh06OjpobGwMMzBlZO9mXl5e2H0YGRkRaz1zxZzcZa/Xy5dffikMQKPRSFFRkdgboJBcrjKTk5M0Nzdz+fJl7Ha7+Ft+fj6bNm3CYrGIp2C2bnehopSCbLZs2SLsAL/fj91u5+LFi7S0tAjDW0alUhEXF0d5eTn5+fkYDAYAent7+frrr+8JtnkYHloMPp+P8fFxzp49y/DwMEjdfX5+PiUlJbPuRO7q6uLatWt0dHSIH5Odnc2yZcsoLS0VU63FhizssrIyli9fTnZ2Nkj3UI7c6unpmXkZMTExYt+o7LUcGhri7NmzTExMzJkgHloMcrxCd3c3TqcTlUolNp6mpqYKJSukebTH46GpqYlbt26FDSsrV65k9erVYYbSYiU2NpZ169axYsUK8drQ0BC3bt2itbUVj7SZVz5MJhNZWVnk5OSIpWyHw0FHRwdtbW1hi4APw0OLwWazce7cORGBrNfrSU5OprCwEJPJhEqlIhiymWVsbIzW1lZ6enqEh1Kr1bJ69WqWLl06490XL9XV1axZs0ZMM10uF93d3bS1tTE+Pi7umTzDiIqKorCwMGw3t7wvY+au9B/KQ4thfHyckydPCjGYTCYyMzMpLy8PW4hRKpX4/X6amppoaWlhbGwMpHH0mWeeIS8v77HG+803RqOR7OxsysvLhWE4PDxMc3MznZ2dBCV3uzwV1+l0VFRUkJmZKdZmnE6nWNCbCx5KDH6/n8nJybAZgbxQk52dLbxo8lgZCATo6emhvb1diEGj0bBt2zbhlHpaUCqVLFmyhJdeekn87tHRUVpbW+no6BDeSPnQarUi8lruGXw+n4jgngu74aHuvhxWLm+CQZo+JSYmChesjByGPjAwwPj4uBgiVCoVy5YtIzExUZz7tJCYmCiipAhJTjIwMCAipmRUKpWIiJKn3QFpE5EcYfWwPJQYJiYmRK8gd2txcXGkp6fPPBW3283AwAD9/f3CuaLT6cjIyCArK0v8wKcJo9FIamoqWVlZYkh1Op3cvXuXoaEh0duGkpGRQVxcHEopOmx6epru7u45GSoeSgwjIyO0tbWJjSZ6vZ60tDRycnJmnorb7aarq4vOzk6h4ri4OLZu3UpMTMwji955kpF9CC+88IKYRU1NTdHd3c3AwIDoPUPJzc0lJSUFnU5HIBDAbrc/GWKQo4AdDgfBYBCDwSASZ87E7/czNTVFf3+/mApFR0ezbt06Mf18GjEYDKxevRqLxQKSGLq6uhgZGZnVDkhPTxfCCQQCYuidixnFQ4nBJaXKk+0FhUKB2WwmNjZ25ql4vV5GR0cZHR0VitfpdGRlZc1JOPtCRavVkpGRIYYJt9vN6OjofcWQmJgYto8iKO3hlGdzD8MPFoNX2vwaario1WqMRqOY+sj4/X6cTifj4+O4XC4C0iaSqKiop3aIkFGpVMTExBAVFYVarSYQCOB0OpmcnMTtdoe58ZEMdDkaXMYu5ZqYTTwPwg8WgxyoGTquGQyGWTeueL1eHA4HNptNWMhGo5GEhIR7Ip+eNuT1ivj4+LBZgry7amYDa6Q9ovKqJ1JvMj09PauN8SD8YDH4pF3JoVgsFsyz7Av0SdlXXS6XGFIsFotwVz9N/oWZyA6ltLQ04XSTDUOHw3HPPUZ6kEIddEEppH6mcB6UH9wKshhCv4DVap1VDIFAQISLy2IwGo2LIl5hrjBKWWyR7tf09DSeWXaXIw0VoWKQ2+Jhl7MfSgwzlSjnO5qJX8rNIM86kLq70K7uaUV21UdFRQkjMhgM4nA4ZrUZkIbjmXbZbO3xoPxgMfilfEihX1YXUpgjlKAUFucLye6qlPIaRPiDIPR6vbh3QSkpidfrnVUMGqkQikxASiYybz1DMGRVTUYVUojju5AXYSL8gdnum/zgzEQtpRCQkdvhfud/XyKtsQBRSzkl5pqIGCIIImJ4QtBIycjmk4gYnhBUT0DZxPn99Ag/iLkwFmdjTsXwKL5ghHvxSXkr55o5FYNHKiwaYWEyp2KIsLCJiCGCICKGCIKIGCIIImKIIJg3Mailuo9yVpYI88+8iUEplQGab69bhP9PpCUiCCJiiCCIiCGCICKGCIKIGCIIvrcYgiFpZYIhCcBDedC4xgc5dzEj52CYyWyvETITm2u+d2vMDICd7QfI28TlxNfy4Xa774n0VUg5nuS/h57/NB1ut1tEjofeHzni2RNSqVc+P/iIkqh/7+p1M2MVenp6+O1vf8uvfvUrmpubAVi/fj0vvPACVVVVIoZfpVIxOTnJzZs3RTZYp9NJSUkJ27Zto66uLux9n1a++OILDh06REtLCwaDgYqKCrZv305JSQlRUVEiDF6tVnP27FkOHDjA2bNnASgtLeXHP/4xO3fuFPklfwjfWwxImd36+vq4ceMGly9f5tSpU1y9elVsvk1OTiYrK4vExMSwHsTn8zExMUFXV5coyBUdHU1mZqZILv6009XVRU9PDzabDbVaTWJiIpmZmURHR6OWyiog9b53796lq6tLJCWPj4/nmWeeYfny5VRWVrJ06VKSk5MfeJPSrGKQ7QJCGrOvr48LFy5w/PhxOjo66O3tZXBwMCwvQKiLeSby8CGntVOpVGi12shGGgk5MMgvlWDSSmUVZw7FSJFObrdb9L4aqSxiQkICGRkZ5ObmsmnTJqqqqkhLSxMZ92Yb2kOZVQyhMXYej4f29nbq6+s5cOAAJ06cmHl6hCeQ2tpann/+edavXy+SicpiuJ8gvlUMPqnE0L59+zhw4ABNTU1/uCgkfb583O8DIjxa5HaSj9BePTc3l+3bt/P2229TWFiISsq8ez/jc1YxyF16b28vH3zwAV988QWdnZ2iWzKZTJjNZjIyMigqKiI3NxeTySQ+JCDVln5UUbwR/kBQ2sPa0dHB7du3RUol2YZTqVRkZmby7LPP8td//dekpqbed+hBFkNQmjYqlf+/OkxfXx+HDh3iF7/4BR0dHbhcLrRaLQkJCaxevZo1a9ZQVFQkUtGF9g7y+0V4tMi9gMPhYGhoiObmZs6dO0d9fT3Dw8N4vV50UkHYv/iLv2Dbtm2kpqaiVqtn7R2EGOQnWKFQYLPZaGxs5D/+4z+4dOkSLpcLo9EoDJPNmzdTWlpKQkJC2G7gCI8Xud0UCgUej4fR0VFu3brFoUOHOHz4MF1dXbjdbvR6PRUVFfzDP/wDa9asEcVPZqJkhgMpINWvPn/+PKdPn8blcqFSqUhPT2fjxo28+eabbNy4kfT0dHRSFbpQMUV4vMj3XavVkpKSwrp163jzzTfZsGEDqampKKWCcGfOnOHChQsMDg7OfAuBkpA3lIeIO3fucObMGXGS2WymqqqK559/nrKysnumg5EhYf6RH0idTkd5eTmvvPIKy5YtC8ukc+7cOVpbW/FL5YxmPsRi4JAb1O12c/PmTeHdAigrK2PNmjUUFBTMOtZEmD+USmWYg09+rbCwkFWrVlFYWCjObWxs5Nq1a8LAnPkQi5aVG3liYiIstzNSIsq8vDzi4uJmnadGBDI/yG0hG/6hR1xcHHl5eWGpm91Sbmq5LOLMdhP/krsLm80mCmEpFApiY2NJS0sTNZhnEvoFIswPs91/nZTdPyUlRWSfRUr+LlcKnHndPWKw2+0i0bdSqSQxMZGEhISnOqXvQsVgMBAXF0dsbKzoBRwOx32r3onZhOydCk0uqZB85Pebly4mZjOoFjparVakCZR7AJfLNWvJRGaLZ3iavYYzDarFgPIBAmHuEcPTzGLv/b6Lp+rX+/1+bDYb3d3d3L59m4sXL3L69GlOnz7NxYsXuX79uijz87A5FZ8Ugg+wNLCoxBA67stDnVznoqOjgwsXLnDs2DH279/PJ598wkcffcTevXvZu3cvv/nNb/j44485cOAAx48f5+LFi3R0dOB0OsXNnPn+C2E4fZDvec+q5aFDh3j//ff54osvUKvVlJSU8NZbb7Ft2zby8vJCT32ikH9w6FPg9XqZmJigra2N48ePc/78ebq6urDb7SIuUy6EIkcFmc1mLBYLOTk5rFixgueee47MzEwsFouIOJIdPYpvWQ5+EmhtbeX3v/89v/71r7l16xZ+v5+XXnqJP//zP2fz5s0zT188PYPcHSqlCG2Hw8GZM2f413/9V15//XX+8z//k5MnT9LW1sbg4CDj4+PY7Xa8Xi9er5epqSmmpqYYHBykra2NEydO8POf/5yXX36Zn//859y8eROv1yuEIDt6FhOLRgyh9Pf38+GHH/Lv//7vHDx4kJGRESYnJ3G5XCLHciAQQKfTiWIp8qJbQIpKdrlcTE5OMjw8zG9/+1v+5V/+hb179zIwMIBCiuxebCwaMSikZdy2tjY++OADPvroI86cOcPAwABIc26r1UpOTg4rV65k+/bt7Nq1i7fffpsf//jH7N69mxdffFHUqLZarWJBrru7m5MnT7Jv3z5++ctf0tfXtygTmanefffdfwp9oa2tjUuXLtHS0oJSqSQhIYGlS5eSn58/a+2p+WLmk+n1eunp6eH//u//+OCDD2hvb8fn86GUKr3k5ORQWVnJ+vXr2bx5Mxs3bqSmpoa1a9eycuVKKioqKCkpITs7W9TlVCgUIvDU7XbT399PW1sbJpOJjIwMzGbz957DzwdjY2O0tLRw7do1hoeHCQaDFBYWUl1dTW5u7szTF3bPEJA29QQCAUZHR6mvr+e9994TIeQqqUh7eXk5O3fu5O/+7u/4+7//e95++222bNlCZWUl+fn55ObmUlpaysaNG/mTP/kTfvrTn/KTn/yEnTt3UlpaisViEYZif38/P/vZz2hoaBA1qxcLC1oMSI4ih8NBfX09e/fuDftbUlISdXV1/M3f/A3vvPMOVVVVYaV/mDH1kl+LiYlh5cqVvPPOO/zt3/4tmzdvvqci7/vvv8/p06cX1XCx4MUAcPPmTerr67lz5454TQ4E3b17N2vXriUhISGsRoP8pIeu3IUahnK859q1a3nzzTd59tlnwzb83L59m2PHjnHt2jXx2kJnQYtBIUVmNTQ00NjYKFbj5KDd5557jhUrVhAXFycCdr/rkN9XIW0FiI2NFf6G1atXEx8fD1Ix0hMnTlBfXx9We2shs2DFIDdcf38/Fy5coLW1FaQnuri4mE2bNrF8+fIwoze0wWdDITmRQn0IwWBQCGLjxo0UFxeLHWMtLS2cO3eOnp6eGe+0MFmwYkAa40+dOkVfXx9I2/usVivLli2jqqqKlJSUmZc8EIqQpf3U1FSqq6upqqrCYrGIWcTAwAAXLlyI9Azzjd/vp76+nt7eXpBcyrm5uaxdu5bU1NRv7QUeFIVCQUpKCitWrAirat/X18eZM2ciYphPfD4fNpuNzs5O7HY7SBtQ09PTyc3NxWKxzLkYrFYrS5YsISUlRRijclV7m80mdpwtVBasGDwej9gF7vP5UKlUREVFkZ6ejtVqnbWk4sOi1WqJjY0lOztbeCe9Xi92u53BwUG8s1SnXUgsWDF4vV4GBwdxS4VA1Wo1FouFtLS0RyIEGa1WS1ZWlqjhHZT2pUbEMI/4fD7GxsZEIIpKpcJgMBAfHz9rfoi5Qq1WExcXR1RUFBqNhkAggNvtZnR0NDJMzBcBqV607DVUqVTo9XrxxD4qlEolJpMJnU4nHFczv8tCZcGKQalUhm0vl5eeH6UQkPwOLpcrLGGZUqkMm24uVBasGNRqNdHR0RiNRpRKJW63G5vNxsjIyCONX/R6vYyMjIjhSSnV9I6IYR5RqVRic49KpcInJRHr7u5+pIacx+MR01lZDAaDgdjY2IgY5guNRkN8fDxarVYMDW63m+7u7kc2fgcCARwOB83NzWKjkVqtxmw2k5ycfM/u9IXGghWDVqslMTGRpKQksfVPFkNbW1tYFrq5YnJyko6ODmw2mxiKtFot0dHRxMbGPtJZzONgwYpBoVCg0WjYsGGD2Gnsdrvp6uri4sWLIsBlLhkYGODMmTM0NzfjcrkAyMjIYN26dWINYyGzYMWAZDeEisHn8zE6Osr58+e5desWo6OjMy/5wYyMjHDr1i0uXbrExMQEfr8frVZLbm4ua9asWfBCYCGLQV4YKigooLS0lKSkJILBIE6nk+vXr9PQ0MCNGzfu2XEcGtn0fZmamuL69es0NjaGBdCkp6ezdOlSlixZEnb+QmXBigGpYXU6Hc899xybNm0Sbuju7m6+/vprjhw5QmtrK24pWbcshO9jXAaltHput5vW1lYOHz7MsWPHROyCRqNh7dq1rF+/XhiODyqyJ40FLQaZpUuXUldXR0lJiXitvb2dgwcPsm/fPi5evMjk5CR+KRWv7Dn8NuR9mRcuXGDv3r188cUXtLe3i7+XlZVRW1tLaWkpLJId3N99V55wAoEAJpOJyspKXnnlFfLy8tBqtfh8Prq7uzl8+DB79uzh4MGDNDU14XA4vnN8t9vt3Lp1i08++YQ9e/Zw5MgRenp68Pl8aDQaMjIy2LVrF1VVVRiNRoL3qb+x0FjQYlBIYWyqkEyou3btori4GLPZjNPppKuri2PHjrFv3z7OnDnD2NjYfZ9ieQgZHh6moaGBjz76iOPHj9Pd3Y3L5cJkMlFUVMTOnTvZvHkz6enpwtEkf5eFzIIVg9zdy/GKZrOZwsJCdu3axfbt2yktLcVqteL1eunv76ehoYHbt29js9m+dWwPBoPYbDaR/rC/vx+v14vVaqWkpIStW7eye/du8vLyMBgM4nssdCGwkMUwGwaDgfz8fF577TV27twZZkMgTT1/6LpFYWEhr7zyCrt376a8vBy9Xv+tolqILCoxIPUYS5Ysoaam5h4xPAyVlZVs2rRJpCVYLL1BKItODCqVCo1Gg8lkwmg0zvzzDyYqKoro6Gg0Go2wDyJieIIJbSTVHNfZXoyNP5O5u1uLHDmnw2ImIoYIgogYIggiYoggiIghgiAihgiCiBgiCCJiiCCIiCGCICKGCIKIGCIIImKIIIiIIYIgIoYIgogYIggiYoggiIghgiAihgiCiBgiCJ5aMQRCalXIhxz6rnyAwqCLiadKDA6Hg6GhIfr6+ujt7Z316OvrY2ho6J7d208Di1oM8m4nmc7OTurr69m/f/+3HkeOHKGlpUVcJ+/cWuws2l+o0WiIjo4W9SEAzp8/z/vvv8977733rceePXu4cuWKuC4+Ph6r1brg0/R8F4tWDCaTidzcXMrLy8Vrbrcbu92OzWb71mNqaiqs3NDy5cvJz8/HZDKJ1xYji1YMRqORoqIitmzZwooVK0Q2+ISEhO91JCcni6q3tbW1FBQURMSwUNHr9WRnZ1NbW8vrr7/Otm3bqK2tZcOGDbMeNTU1rF+/npqaGjZs2MCmTZvYvn07b7zxBjU1NWRkZIgaE4uV76yFXV5ezh//8R+zdevWWWshPskEg0GRLHRwcBCHw3HfZN/yuXItK7VajclkIjk5+ZGVLHjUPJJa2FqtdkEaT0GpiHlsbCwFBQVUVFSwbNmyWY/ly5ezatUqli9fzrJly6ioqKCgoICYmJgF+dvvx7fltLpHDLIDJpSHyWswn8hTS5VKhVarRafTfeuh1+vD/q3VahdFfsdQHkgMM/MOBAKBBbvp9GnYOf1tyG3n8/mEd/Xb7omSkNyIQSmVnjw+BqUqK6Hp9CMsHOTUhXI2WyT/y/0MYdEzyI1tNptFLuZgMMjExAQ2mw23273o0tYsZoLBIF6vF4fDgdPpFG1nNBpFCeiZ3DNMxMbGYrVaQRLI0NAQg4OD2O32SO+wgAgEAoyNjdHT08PQ0JAQQ0xMTJhXNhQhBoVCQSAQIDY2ltjYWNGVBAIBWltbuXPnDmNjY6HXRniCGR0dpaWlhe7u7rCH2GAw3Nd5pmRG+hvZc1dRUSFOam5u5vz58zQ1NeHxeCLDxRNMMBjE4/HQ1NTExYsXaWtrE3975plnyM/Pv2+uq7CeQalUolarKSsro6amRpw0ODjI2bNnOXr0KK2trTidzsiQ8QQQavgj9eJOp5OWlhaOHDnCuXPnwkotbNmyhYqKivsakKp33333n0JfUCgU6PV6pqenOXr0KF6vl2AwyPDwMD09PajValJTU9Hr9WHLuqFfLHI8noMQw9/v9+NwOOjq6uKTTz7h448/Fr2CUiqo9pd/+ZdUVVXdt2LOPe5opDfu7e3lwIED/Nu//ZuwFVQqFVarlbq6OrZu3UpFRQVJSUn3VVqER09QGhbu3r3LlStX+PLLLzl69KhInI60BP+P//iPvPjii6Smpt43imtWMQSlug0dHR3893//N4cPHxaFwBQKBfHx8SQnJ5OUlERaWhq5ubn39BQRHg2ybReUSiA4nU7a29vp6+tjcHCQu3fvMjo6SjAYRKPRkJ2dzbPPPsuf/dmfkZmZKVIcz8asYiBk/Ll69Sqff/45jY2NtLW1YbPZxDkajYaoqCiSkpLQaDQRMTwGZopBLgNtt9vDqvbJRdzXr1/PSy+9xNKlS7/zgb2vGORxyePxcOXKFerr62lsbKSpqYnx8XGcTueCXK9YzKikEtBy0vN169axceNGnnnmGVHl7369AvcTQ6iRolQq8Xq99PT0cOXKFc6cOcP58+fp6urC4XAQkKKKZYMmwuNFbmClUonZbCYzM5Pq6mrWrFlDZWUl6enpomZ3qAthNmYVg9zASqVSvElAqul49+5d7ty5Q1dXFwMDA6KXkGcdER4fCqmCn8FgICYmhtTUVLKysigsLCQ5ORmTyYRSqbynLe83VMwqhpmNGvpvt9uNw+HA4XBgs9mYnJzE4/FEnFHzgEKhEEvzFosFq9WKyWTCZDKh1WqFEGZyv57h/wGGRuTLnmxU4QAAAABJRU5ErkJggg==;" vertex="1" parent="1">
          <mxGeometry x="324.1" y="429.5" width="31.41" height="41" as="geometry" />
        </mxCell>
        <mxCell id="_JRS8aCD4_NyxfwCqgJr-54" value="AMAZON S3" style="rounded=1;whiteSpace=wrap;html=1;" vertex="1" parent="1">
          <mxGeometry x="440" y="240" width="80" height="40" as="geometry" />
        </mxCell>
        <mxCell id="_JRS8aCD4_NyxfwCqgJr-56" value="&lt;b&gt;AMAZON&lt;br&gt;Quick Sight&lt;span style=&quot;color: rgba(0, 0, 0, 0); font-family: monospace; font-size: 0px; text-align: start; text-wrap-mode: nowrap;&quot;&gt;%3CmxGraphModel%3E%3Croot%3E%3CmxCell%20id%3D%220%22%2F%3E%3CmxCell%20id%3D%221%22%20parent%3D%220%22%2F%3E%3CmxCell%20id%3D%222%22%20value%3D%22AMAZON%20S3%22%20style%3D%22rounded%3D1%3BwhiteSpace%3Dwrap%3Bhtml%3D1%3B%22%20vertex%3D%221%22%20parent%3D%221%22%3E%3CmxGeometry%20x%3D%22-180%22%20y%3D%22197.5%22%20width%3D%22120%22%20height%3D%2260%22%20as%3D%22geometry%22%2F%3E%3C%2FmxCell%3E%3C%2Froot%3E%3C%2FmxGraphModel%3E&lt;/span&gt;&lt;/b&gt;" style="rounded=1;whiteSpace=wrap;html=1;" vertex="1" parent="1">
          <mxGeometry x="75" y="240" width="110" height="40" as="geometry" />
        </mxCell>
        <mxCell id="_JRS8aCD4_NyxfwCqgJr-57" value="&lt;b&gt;AMAZON EMR&lt;/b&gt;" style="rounded=1;whiteSpace=wrap;html=1;" vertex="1" parent="1">
          <mxGeometry x="250" y="240" width="90" height="40" as="geometry" />
        </mxCell>
        <mxCell id="_JRS8aCD4_NyxfwCqgJr-58" value="&lt;b&gt;&lt;font style=&quot;font-size: 20px;&quot;&gt;USER&lt;/font&gt;&lt;/b&gt;" style="text;html=1;align=center;verticalAlign=middle;resizable=0;points=[];autosize=1;strokeColor=none;fillColor=none;" vertex="1" parent="1">
          <mxGeometry x="630" y="450" width="80" height="40" as="geometry" />
        </mxCell>
        <mxCell id="_JRS8aCD4_NyxfwCqgJr-59" value="&lt;font style=&quot;font-size: 14px;&quot;&gt;DESKTOP&lt;/font&gt;" style="text;html=1;align=center;verticalAlign=middle;resizable=0;points=[];autosize=1;strokeColor=none;fillColor=none;" vertex="1" parent="1">
          <mxGeometry x="625" y="150" width="90" height="30" as="geometry" />
        </mxCell>
      </root>
    </mxGraphModel>
  </diagram>
</mxfile>
